<svg width="20" height="21" viewBox="0 0 20 21" fill="none" xmlns="http://www.w3.org/2000/svg">
<path d="M17.5 15.6136H17.1875V3.42615C17.1875 3.17751 17.0887 2.93905 16.9129 2.76323C16.7371 2.58742 16.4986 2.48865 16.25 2.48865H11.875C11.6264 2.48865 11.3879 2.58742 11.2121 2.76323C11.0363 2.93905 10.9375 3.17751 10.9375 3.42615V6.23865H7.5C7.25136 6.23865 7.0129 6.33742 6.83709 6.51323C6.66127 6.68905 6.5625 6.92751 6.5625 7.17615V9.98865H3.75C3.50136 9.98865 3.2629 10.0874 3.08709 10.2632C2.91127 10.4391 2.8125 10.6775 2.8125 10.9261V15.6136H2.5C2.25136 15.6136 2.0129 15.7124 1.83709 15.8882C1.66127 16.0641 1.5625 16.3025 1.5625 16.5511C1.5625 16.7998 1.66127 17.0382 1.83709 17.2141C2.0129 17.3899 2.25136 17.4886 2.5 17.4886H17.5C17.7486 17.4886 17.9871 17.3899 18.1629 17.2141C18.3387 17.0382 18.4375 16.7998 18.4375 16.5511C18.4375 16.3025 18.3387 16.0641 18.1629 15.8882C17.9871 15.7124 17.7486 15.6136 17.5 15.6136ZM12.8125 4.36365H15.3125V15.6136H12.8125V4.36365ZM8.4375 8.11365H10.9375V15.6136H8.4375V8.11365ZM4.6875 11.8636H6.5625V15.6136H4.6875V11.8636Z" fill="#A8A8BD"/>
</svg>
