<svg width="20" height="20" viewBox="0 0 20 20" fill="none" xmlns="http://www.w3.org/2000/svg">
<path d="M17.5 15.3125H17.1875V3.125C17.1875 2.87636 17.0887 2.6379 16.9129 2.46209C16.7371 2.28627 16.4986 2.1875 16.25 2.1875H11.875C11.6264 2.1875 11.3879 2.28627 11.2121 2.46209C11.0363 2.6379 10.9375 2.87636 10.9375 3.125V5.9375H7.5C7.25136 5.9375 7.0129 6.03627 6.83709 6.21209C6.66127 6.3879 6.5625 6.62636 6.5625 6.875V9.6875H3.75C3.50136 9.6875 3.2629 9.78627 3.08709 9.96209C2.91127 10.1379 2.8125 10.3764 2.8125 10.625V15.3125H2.5C2.25136 15.3125 2.0129 15.4113 1.83709 15.5871C1.66127 15.7629 1.5625 16.0014 1.5625 16.25C1.5625 16.4986 1.66127 16.7371 1.83709 16.9129C2.0129 17.0887 2.25136 17.1875 2.5 17.1875H17.5C17.7486 17.1875 17.9871 17.0887 18.1629 16.9129C18.3387 16.7371 18.4375 16.4986 18.4375 16.25C18.4375 16.0014 18.3387 15.7629 18.1629 15.5871C17.9871 15.4113 17.7486 15.3125 17.5 15.3125ZM12.8125 4.0625H15.3125V15.3125H12.8125V4.0625ZM8.4375 7.8125H10.9375V15.3125H8.4375V7.8125ZM4.6875 11.5625H6.5625V15.3125H4.6875V11.5625Z" fill="#A8A8BD"/>
</svg>
