<svg width="20" height="20" viewBox="0 0 20 20" fill="none" xmlns="http://www.w3.org/2000/svg">
<path d="M17.625 4.89381L10.75 1.13053C10.5202 1.00408 10.2623 0.937775 10 0.937775C9.73775 0.937775 9.47975 1.00408 9.25 1.13053L2.375 4.89381C2.129 5.02841 1.92375 5.22674 1.78079 5.46798C1.63784 5.70922 1.56244 5.98449 1.5625 6.26491V13.7352C1.56244 14.0156 1.63784 14.2909 1.78079 14.5321C1.92375 14.7734 2.129 14.9717 2.375 15.1063L9.25 18.8696C9.47971 18.9962 9.73772 19.0626 10 19.0626C10.2623 19.0626 10.5203 18.9962 10.75 18.8696L17.625 15.1063C17.871 14.9717 18.0762 14.7734 18.2192 14.5321C18.3622 14.2909 18.4376 14.0156 18.4375 13.7352V6.26491C18.4376 5.98449 18.3622 5.70922 18.2192 5.46798C18.0762 5.22674 17.871 5.02841 17.625 4.89381ZM10 2.85709L15.625 5.93756L10 9.01569L4.375 5.93756L10 2.85709ZM3.4375 7.56178L9.0625 10.6399V16.6298L3.4375 13.5501V7.56178ZM10.9375 16.6298V10.6399L16.5625 7.56178V13.5501L10.9375 16.6298Z" fill="#A8A8BD"/>
</svg>
