<svg width="20" height="21" viewBox="0 0 20 21" fill="none" xmlns="http://www.w3.org/2000/svg">
<path d="M17.625 5.19493L10.75 1.43165C10.5202 1.3052 10.2623 1.23889 10 1.23889C9.73775 1.23889 9.47975 1.3052 9.25 1.43165L2.375 5.19493C2.129 5.32953 1.92375 5.52785 1.78079 5.7691C1.63784 6.01034 1.56244 6.28561 1.5625 6.56602V14.0363C1.56244 14.3168 1.63784 14.592 1.78079 14.8333C1.92375 15.0745 2.129 15.2728 2.375 15.4074L9.25 19.1707C9.47971 19.2973 9.73772 19.3637 10 19.3637C10.2623 19.3637 10.5203 19.2973 10.75 19.1707L17.625 15.4074C17.871 15.2728 18.0762 15.0745 18.2192 14.8333C18.3622 14.592 18.4376 14.3168 18.4375 14.0363V6.56602C18.4376 6.28561 18.3622 6.01034 18.2192 5.7691C18.0762 5.52785 17.871 5.32953 17.625 5.19493ZM10 3.15821L15.625 6.23868L10 9.31681L4.375 6.23868L10 3.15821ZM3.4375 7.8629L9.0625 10.941V16.9309L3.4375 13.8512V7.8629ZM10.9375 16.9309V10.941L16.5625 7.8629V13.8512L10.9375 16.9309Z" fill="#A8A8BD"/>
</svg>
