<svg width="20" height="20" viewBox="0 0 20 20" fill="none" xmlns="http://www.w3.org/2000/svg">
<path d="M16.9133 6.21256L12.5383 1.83756C12.4512 1.75039 12.3478 1.68123 12.234 1.63404C12.1202 1.58686 11.9982 1.56257 11.875 1.56256H4.375C3.9606 1.56256 3.56317 1.72718 3.27015 2.02021C2.97712 2.31323 2.8125 2.71066 2.8125 3.12506V16.8751C2.8125 17.2895 2.97712 17.6869 3.27015 17.9799C3.56317 18.2729 3.9606 18.4376 4.375 18.4376H15.625C16.0394 18.4376 16.4368 18.2729 16.7299 17.9799C17.0229 17.6869 17.1875 17.2895 17.1875 16.8751V6.87506C17.1875 6.62662 17.0889 6.38834 16.9133 6.21256ZM12.5 4.45319L14.2969 6.25006H12.5V4.45319ZM4.6875 16.5626V3.43756H10.625V7.18756C10.625 7.4362 10.7238 7.67466 10.8996 7.85047C11.0754 8.02629 11.3139 8.12506 11.5625 8.12506H15.3125V16.5626H4.6875Z" fill="#A8A8BD"/>
</svg>
