<svg width="20" height="21" viewBox="0 0 20 21" fill="none" xmlns="http://www.w3.org/2000/svg">
<path d="M16.9133 6.51371L12.5383 2.13871C12.4512 2.05154 12.3478 1.98238 12.234 1.93519C12.1202 1.888 11.9982 1.86371 11.875 1.86371H4.375C3.9606 1.86371 3.56317 2.02833 3.27015 2.32135C2.97712 2.61438 2.8125 3.01181 2.8125 3.42621V17.1762C2.8125 17.5906 2.97712 17.988 3.27015 18.2811C3.56317 18.5741 3.9606 18.7387 4.375 18.7387H15.625C16.0394 18.7387 16.4368 18.5741 16.7299 18.2811C17.0229 17.988 17.1875 17.5906 17.1875 17.1762V7.17621C17.1875 6.92776 17.0889 6.68948 16.9133 6.51371ZM12.5 4.75433L14.2969 6.55121H12.5V4.75433ZM4.6875 16.8637V3.73871H10.625V7.48871C10.625 7.73735 10.7238 7.97581 10.8996 8.15162C11.0754 8.32744 11.3139 8.42621 11.5625 8.42621H15.3125V16.8637H4.6875Z" fill="#A8A8BD"/>
</svg>
