<svg width="46" height="153" viewBox="0 0 46 153" fill="none" xmlns="http://www.w3.org/2000/svg">
<g clip-path="url(#clip0_377_45588)">
<ellipse cx="23" cy="122.69" rx="23" ry="29.6529" fill="#F9F9FF"/>
<path d="M23.0557 131.657C20.3603 131.657 17.6649 131.657 14.9695 131.657C14.8378 131.657 14.7044 131.657 14.5722 131.64C13.8974 131.558 13.6261 130.972 13.9139 130.18C14.1636 129.496 14.436 128.829 14.7005 128.152C15.949 124.966 17.1976 121.779 18.4462 118.594C18.4848 118.496 18.5251 118.399 18.5699 118.306C18.8843 117.656 19.3951 117.565 19.7975 118.125C20.0812 118.517 20.3213 118.958 20.5744 119.383C21.8608 121.55 23.1472 123.719 24.4336 125.888C24.9955 126.832 25.7032 126.883 26.3632 126.034C26.6907 125.613 27.0108 125.18 27.3422 124.762C27.9398 124.009 28.618 124.054 29.1061 124.933C30.0857 126.696 31.0408 128.483 32.0005 130.264C32.0755 130.404 32.133 130.558 32.1708 130.721C32.2638 131.13 32.1322 131.459 31.8104 131.568C31.6086 131.63 31.4015 131.659 31.194 131.654C28.4828 131.659 25.77 131.661 23.0557 131.657Z" fill="#D4D2E3"/>
<path d="M29.1004 114.195C29.0997 114.876 28.9424 115.54 28.6484 116.105C28.3544 116.67 27.9369 117.109 27.4489 117.368C26.9609 117.626 26.4243 117.692 25.9073 117.557C25.3902 117.422 24.9159 117.092 24.5445 116.609C24.173 116.126 23.9212 115.511 23.821 114.844C23.7207 114.176 23.7765 113.485 23.9813 112.858C24.1861 112.231 24.5306 111.697 24.9712 111.322C25.4119 110.948 25.9287 110.751 26.4563 110.756C27.1588 110.768 27.8297 111.135 28.3243 111.778C28.8189 112.421 29.0976 113.29 29.1004 114.195Z" fill="#D4D2E3"/>
</g>
<defs>
<clipPath id="clip0_377_45588">
<rect width="46" height="152.343" fill="white"/>
</clipPath>
</defs>
</svg>
