<svg width="20" height="20" viewBox="0 0 20 20" fill="none" xmlns="http://www.w3.org/2000/svg">
<path d="M10 5.93748C9.19651 5.93748 8.41107 6.17574 7.743 6.62213C7.07492 7.06853 6.55422 7.703 6.24674 8.44533C5.93926 9.18765 5.85881 10.0045 6.01556 10.7925C6.17231 11.5806 6.55923 12.3044 7.12738 12.8726C7.69553 13.4408 8.4194 13.8277 9.20745 13.9844C9.99549 14.1412 10.8123 14.0607 11.5547 13.7532C12.297 13.4458 12.9315 12.9251 13.3778 12.257C13.8242 11.5889 14.0625 10.8035 14.0625 9.99998C14.0613 8.92292 13.6328 7.89033 12.8713 7.12873C12.1097 6.36713 11.0771 5.93872 10 5.93748ZM10 12.1875C9.56735 12.1875 9.14442 12.0592 8.78469 11.8188C8.42496 11.5785 8.14458 11.2368 7.97901 10.8371C7.81345 10.4374 7.77013 9.99755 7.85453 9.57322C7.93894 9.14889 8.14728 8.75911 8.4532 8.45318C8.75913 8.14726 9.14891 7.93892 9.57324 7.85451C9.99757 7.77011 10.4374 7.81343 10.8371 7.97899C11.2368 8.14456 11.5785 8.42494 11.8188 8.78467C12.0592 9.1444 12.1875 9.56733 12.1875 9.99998C12.1875 10.5801 11.957 11.1365 11.5468 11.5468C11.1366 11.957 10.5802 12.1875 10 12.1875ZM17.1875 10.0617V9.93826L18.2813 8.57029C18.3731 8.45567 18.4367 8.32108 18.4669 8.17737C18.4972 8.03367 18.4933 7.88486 18.4555 7.74295C18.2581 6.9985 17.9631 6.28344 17.5781 5.61639C17.504 5.48918 17.4009 5.38124 17.2772 5.30129C17.1536 5.22135 17.0128 5.17165 16.8664 5.15623L15.1258 4.96092L15.0391 4.8742L14.8438 3.13279C14.8282 2.9865 14.7785 2.84591 14.6985 2.7224C14.6186 2.5989 14.5107 2.49594 14.3836 2.42185C13.7165 2.03567 13.0011 1.73961 12.2563 1.54139C12.1142 1.50415 11.9654 1.5008 11.8218 1.5316C11.6783 1.56241 11.5439 1.6265 11.4297 1.71873L10.0617 2.81248H9.93828L8.57031 1.71873C8.45569 1.62692 8.3211 1.56332 8.1774 1.53306C8.03369 1.5028 7.88488 1.50672 7.74297 1.54451C6.99833 1.74311 6.28326 2.03944 5.61641 2.42576C5.4897 2.49954 5.38206 2.60201 5.30214 2.72494C5.22223 2.84787 5.17226 2.98783 5.15625 3.13357L4.96094 4.8742L4.87422 4.96092L3.13281 5.15623C2.98652 5.17177 2.84593 5.22152 2.72242 5.30146C2.59892 5.3814 2.49596 5.48928 2.42187 5.61639C2.03678 6.28365 1.74177 6.99899 1.54453 7.74373C1.50687 7.88553 1.50301 8.03418 1.53327 8.17774C1.56353 8.3213 1.62706 8.45576 1.71875 8.57029L2.8125 9.93826V10.0617L1.71875 11.4297C1.62694 11.5443 1.56334 11.6789 1.53308 11.8226C1.50282 11.9663 1.50674 12.1151 1.54453 12.257C1.74338 13.0017 2.03997 13.7168 2.42656 14.3836C2.50026 14.5102 2.60261 14.6178 2.7254 14.6977C2.84818 14.7776 2.98798 14.8276 3.13359 14.8437L4.87422 15.0375L4.96094 15.1242L5.15625 16.8672C5.17179 17.0135 5.22154 17.154 5.30148 17.2776C5.38142 17.4011 5.4893 17.504 5.61641 17.5781C6.28351 17.9643 6.99885 18.2604 7.74375 18.4586C7.88579 18.4958 8.03459 18.4992 8.17816 18.4684C8.32173 18.4376 8.45605 18.3735 8.57031 18.2812L9.93828 17.1875H10.0617L11.4297 18.2812C11.5443 18.373 11.6789 18.4366 11.8226 18.4669C11.9663 18.4972 12.1151 18.4932 12.257 18.4554C13.0015 18.2581 13.7165 17.9631 14.3836 17.5781C14.5106 17.5045 14.6185 17.4021 14.6987 17.2792C14.7789 17.1562 14.8291 17.0162 14.8453 16.8703L15.0391 15.1297L15.1258 15.0429L16.8672 14.8437C17.0131 14.8276 17.1531 14.7773 17.2761 14.6971C17.399 14.617 17.5014 14.509 17.575 14.382C17.9612 13.7149 18.2572 12.9996 18.4555 12.2547C18.4929 12.1131 18.4966 11.9647 18.4663 11.8215C18.4361 11.6782 18.3727 11.544 18.2813 11.4297L17.1875 10.0617ZM15.3031 9.67967C15.3156 9.89303 15.3156 10.1069 15.3031 10.3203C15.2892 10.5522 15.3618 10.7811 15.507 10.9625L16.5102 12.2164C16.4155 12.4967 16.3025 12.7704 16.1719 13.0359L14.5758 13.2133C14.3447 13.2397 14.1317 13.3511 13.9781 13.5258C13.8362 13.6857 13.6849 13.837 13.525 13.9789C13.3503 14.1324 13.2389 14.3455 13.2125 14.5765L13.0359 16.1719C12.7705 16.303 12.4967 16.4165 12.2164 16.5117L10.9625 15.5078C10.7961 15.375 10.5895 15.3028 10.3766 15.3031C10.3578 15.3031 10.3391 15.3031 10.3203 15.3031C10.107 15.3156 9.89305 15.3156 9.67969 15.3031C9.44791 15.2894 9.21922 15.3617 9.0375 15.5062L7.78359 16.5101C7.5033 16.4154 7.22954 16.3024 6.96406 16.1719L6.78672 14.5758C6.7603 14.3447 6.64892 14.1317 6.47422 13.9781C6.31433 13.8362 6.16302 13.6849 6.02109 13.525C5.86754 13.3503 5.65452 13.2389 5.42344 13.2125L3.82812 13.0359C3.69701 12.7705 3.58348 12.4967 3.48828 12.2164L4.49141 10.9625C4.63661 10.7811 4.70927 10.5522 4.69531 10.3203C4.68281 10.1069 4.68281 9.89303 4.69531 9.67967C4.70927 9.44773 4.63661 9.21888 4.49141 9.03748L3.48984 7.78357C3.58454 7.50328 3.69754 7.22952 3.82812 6.96404L5.42422 6.7867C5.6553 6.76028 5.86832 6.6489 6.02187 6.4742C6.1638 6.3143 6.31511 6.163 6.475 6.02107C6.6497 5.86752 6.76108 5.6545 6.7875 5.42342L6.96406 3.8281C7.2295 3.69699 7.50326 3.58346 7.78359 3.48826L9.0375 4.49217C9.21922 4.63669 9.44791 4.70902 9.67969 4.69529C9.89305 4.68279 10.107 4.68279 10.3203 4.69529C10.5521 4.70947 10.781 4.63709 10.9625 4.49217L12.2164 3.48826C12.4967 3.58346 12.7705 3.69699 13.0359 3.8281L13.2133 5.4242C13.2397 5.65528 13.3511 5.8683 13.5258 6.02185C13.6857 6.16378 13.837 6.31509 13.9789 6.47498C14.1325 6.64968 14.3455 6.76106 14.5766 6.78748L16.1719 6.96404C16.303 7.22948 16.4165 7.50324 16.5117 7.78357L15.5086 9.03748C15.3628 9.21865 15.2896 9.44753 15.3031 9.67967Z" fill="#A8A8BD"/>
</svg>
