<svg width="878" height="241" viewBox="0 0 878 241" fill="none" xmlns="http://www.w3.org/2000/svg">
<path d="M0.314575 160.685H18.2104L36.1062 81.0744L54.002 1.4635L71.8978 81.0744L89.7935 240.296L107.689 160.685L125.585 240.296L143.481 160.685H161.377L179.273 81.0744H197.168L215.064 240.296L232.96 81.0744H250.856L268.751 1.4635H286.647L304.543 240.296L322.439 160.685L340.335 1.4635H358.23H376.126H394.022L411.918 240.296L429.814 160.685H447.709L465.605 81.0744L483.501 160.685L501.397 240.296L519.293 160.685L537.188 240.296L555.084 81.0744H572.98H590.876H608.772L626.667 1.4635L644.563 240.296L662.459 81.0744H680.355L698.251 1.4635L716.146 81.0744L734.042 240.296L751.938 160.685L769.834 81.0744H787.73L805.625 160.685H823.521L841.417 240.296L859.313 1.4635L877.208 160.685" stroke="#F5815C"/>
</svg>
