<svg width="165" height="44" viewBox="0 0 165 44" fill="none" xmlns="http://www.w3.org/2000/svg">
<ellipse cx="20.7286" cy="20.7286" rx="18.1376" ry="18.1376" fill="url(#paint0_linear_373_10503)"/>
<path d="M27.4831 27.9337L28.2888 22.8144H23.2487V19.4938C23.2487 18.093 23.9514 16.7267 26.2089 16.7267H28.5018V12.3684C28.5018 12.3684 26.4218 12.0225 24.4342 12.0225C20.2814 12.0225 17.5696 14.4748 17.5696 18.9127V22.8144H12.9553V27.9337H17.5696V40.3099C18.496 40.4517 19.4437 40.5243 20.4091 40.5243C21.3746 40.5243 22.3223 40.4517 23.2487 40.3099V27.9337H27.4831Z" fill="white"/>
<path d="M101.052 20.7286C101.052 30.7405 92.9357 38.8662 82.9147 38.8662C72.8937 38.8662 64.7771 30.7405 64.7771 20.7286C64.7771 10.7076 72.8937 2.59106 82.9147 2.59106C92.9357 2.59106 101.052 10.7076 101.052 20.7286Z" fill="#283544"/>
<path d="M91.4162 16.1391C91.3172 16.1968 88.9611 17.4153 88.9611 20.117C89.0722 23.1981 91.9344 24.2786 91.9835 24.2786C91.9344 24.3364 91.5514 25.7506 90.4168 27.233C89.5163 28.51 88.5169 29.7975 86.9993 29.7975C85.5557 29.7975 85.0375 28.9464 83.3718 28.9464C81.583 28.9464 81.0768 29.7975 79.7072 29.7975C78.1896 29.7975 77.1161 28.441 76.1666 27.176C74.933 25.5204 73.8845 22.9222 73.8475 20.4275C73.8226 19.1055 74.0945 17.806 74.785 16.7022C75.7594 15.1613 77.4992 14.1153 79.399 14.0808C80.8547 14.0351 82.1503 15.0121 83.0386 15.0121C83.89 15.0121 85.4817 14.0808 87.2825 14.0808C88.0599 14.0815 90.1327 14.2997 91.4162 16.1391ZM82.9155 13.8168C82.6564 12.6096 83.3718 11.4024 84.038 10.6323C84.8894 9.70096 86.234 9.06885 87.3936 9.06885C87.4676 10.2761 86.9985 11.4601 86.16 12.3224C85.4076 13.2537 84.1121 13.9548 82.9155 13.8168Z" fill="white"/>
<path d="M162.411 21.1314C162.411 19.6401 162.287 18.5519 162.02 17.4233H144.643V24.1543H154.843C154.637 25.8271 153.527 28.3462 151.059 30.0389L151.025 30.2643L156.519 34.4354L156.9 34.4726C160.395 31.3086 162.411 26.6533 162.411 21.1314" fill="#4285F4"/>
<path d="M144.642 38.8662C149.639 38.8662 153.834 37.2538 156.898 34.4728L151.058 30.039C149.495 31.1072 147.398 31.8528 144.642 31.8528C139.748 31.8528 135.594 28.6889 134.113 24.3157L133.896 24.3337L128.183 28.6667L128.109 28.8702C131.152 34.7951 137.404 38.8662 144.642 38.8662Z" fill="#34A853"/>
<path d="M134.115 24.3158C133.724 23.1873 133.498 21.978 133.498 20.7286C133.498 19.479 133.724 18.2699 134.094 17.1414L134.084 16.901L128.299 12.4985L128.11 12.5868C126.855 15.0454 126.136 17.8064 126.136 20.7286C126.136 23.6507 126.855 26.4116 128.11 28.8703L134.115 24.3158" fill="#FBBC05"/>
<path d="M144.642 9.60421C148.118 9.60421 150.462 11.0754 151.799 12.3048L157.022 7.30683C153.814 4.38468 149.639 2.59106 144.642 2.59106C137.404 2.59106 131.152 6.66191 128.109 12.5868L134.093 17.1414C135.594 12.7682 139.748 9.60421 144.642 9.60421" fill="#EB4335"/>
<defs>
<linearGradient id="paint0_linear_373_10503" x1="20.7286" y1="2.59106" x2="20.7286" y2="38.7586" gradientUnits="userSpaceOnUse">
<stop stop-color="#18ACFE"/>
<stop offset="1" stop-color="#0163E0"/>
</linearGradient>
</defs>
</svg>
