<svg width="160" height="161" viewBox="0 0 160 161" fill="none" xmlns="http://www.w3.org/2000/svg">
<circle cx="80" cy="80.5" r="80" fill="#F9F9FF"/>
<path d="M80.242 111.74C68.5229 111.74 56.8038 111.74 45.0847 111.74C44.5123 111.74 43.9324 111.74 43.3575 111.68C40.4236 111.406 39.2441 109.43 40.4951 106.758C41.5809 104.45 42.7653 102.203 43.9151 99.9201C49.3437 89.1732 54.7722 78.4279 60.2008 67.6843C60.3686 67.3562 60.5438 67.028 60.7387 66.7146C62.1057 64.5234 64.3265 64.215 66.076 66.1051C67.3097 67.4277 68.3535 68.9132 69.454 70.3468C75.0471 77.6556 80.6401 84.9677 86.2332 92.2831C88.676 95.4662 91.753 95.6389 94.6228 92.7766C96.0465 91.3553 97.4382 89.897 98.8792 88.488C101.478 85.9465 104.426 86.0995 106.548 89.063C110.807 95.0097 114.96 101.035 119.133 107.041C119.459 107.513 119.709 108.032 119.873 108.581C120.278 109.96 119.705 111.071 118.306 111.438C117.429 111.648 116.528 111.746 115.626 111.727C103.838 111.747 92.0434 111.751 80.242 111.74Z" fill="#D4D2E3"/>
<path d="M106.524 52.8521C106.521 55.1459 105.837 57.3872 104.558 59.2918C103.28 61.1965 101.465 62.6786 99.3431 63.5504C97.2213 64.4222 94.8885 64.6444 92.6404 64.1887C90.3922 63.7331 88.33 62.6202 86.7151 60.9911C85.1003 59.362 84.0055 57.2901 83.5696 55.0381C83.1336 52.786 83.3762 50.4553 84.2666 48.3412C85.1569 46.2272 86.6549 44.4252 88.5707 43.1636C90.4864 41.902 92.7336 41.2376 95.0274 41.2547C98.0818 41.2935 100.999 42.531 103.149 44.7004C105.3 46.8699 106.512 49.7974 106.524 52.8521Z" fill="#D4D2E3"/>
</svg>
