<svg width="160" height="142" viewBox="0 0 160 142" fill="none" xmlns="http://www.w3.org/2000/svg">
<path d="M80.4841 141.479C57.0459 141.479 33.6077 141.479 10.1695 141.479C9.02454 141.479 7.86481 141.479 6.71494 141.361C0.847169 140.813 -1.51179 136.86 0.990285 131.515C3.16171 126.901 5.53053 122.405 7.83026 117.84C18.6874 96.3464 29.5445 74.8559 40.4016 53.3687C40.7372 52.7123 41.0876 52.056 41.4774 51.4292C44.2114 47.0469 48.653 46.43 52.1519 50.2102C54.6195 52.8554 56.707 55.8263 58.908 58.6936C70.0941 73.3112 81.2802 87.9354 92.4664 102.566C97.3521 108.932 103.506 109.278 109.246 103.553C112.093 100.711 114.876 97.794 117.758 94.9761C122.955 89.893 128.852 90.1989 133.097 96.1259C141.615 108.019 149.92 120.071 158.265 132.083C158.918 133.025 159.417 134.064 159.746 135.162C160.555 137.921 159.41 140.142 156.612 140.877C154.858 141.297 153.056 141.491 151.253 141.454C127.676 141.494 104.087 141.502 80.4841 141.479Z" fill="#D4D2E3"/>
<path d="M133.047 23.7042C133.041 28.2919 131.673 32.7745 129.116 36.5837C126.56 40.3929 122.93 43.3572 118.686 45.1008C114.443 46.8444 109.777 47.2887 105.281 46.3774C100.784 45.4662 96.66 43.2404 93.4303 39.9822C90.2005 36.724 88.0109 32.5802 87.1391 28.0761C86.2673 23.5721 86.7525 18.9105 88.5332 14.6825C90.3138 10.4545 93.3098 6.85041 97.1413 4.32719C100.973 1.80397 105.467 0.47523 110.055 0.509433C116.164 0.587063 121.997 3.06206 126.298 7.40089C130.599 11.7397 133.023 17.5949 133.047 23.7042Z" fill="#D4D2E3"/>
</svg>
