<svg width="20" height="20" viewBox="0 0 20 20" fill="none" xmlns="http://www.w3.org/2000/svg">
<path d="M14.1666 7.61627H5.83324C4.68265 7.61627 3.74991 8.54901 3.74991 9.69961V15.9496C3.74991 17.1002 4.68265 18.0329 5.83324 18.0329H14.1666C15.3172 18.0329 16.2499 17.1002 16.2499 15.9496V9.69961C16.2499 8.54901 15.3172 7.61627 14.1666 7.61627Z" stroke="#1E285F" stroke-width="1.4" stroke-linecap="round" stroke-linejoin="round"/>
<path d="M9.99992 1.36627C8.89485 1.36627 7.83504 1.80526 7.05364 2.58666C6.27224 3.36806 5.83325 4.42787 5.83325 5.53294V7.61627H14.1666V5.53294C14.1666 4.42787 13.7276 3.36806 12.9462 2.58666C12.1648 1.80526 11.105 1.36627 9.99992 1.36627V1.36627Z" stroke="#1E285F" stroke-width="1.4" stroke-linecap="round" stroke-linejoin="round"/>
</svg>
