<svg width="20" height="20" viewBox="0 0 20 20" fill="none" xmlns="http://www.w3.org/2000/svg">
<path d="M14.1667 7.61621H5.83333C4.68274 7.61621 3.75 8.54895 3.75 9.69954V15.9495C3.75 17.1001 4.68274 18.0329 5.83333 18.0329H14.1667C15.3173 18.0329 16.25 17.1001 16.25 15.9495V9.69954C16.25 8.54895 15.3173 7.61621 14.1667 7.61621Z" stroke="#1E285F" stroke-width="1.4" stroke-linecap="round" stroke-linejoin="round"/>
<path d="M9.99992 1.36621C8.89485 1.36621 7.83504 1.8052 7.05364 2.5866C6.27224 3.368 5.83325 4.42781 5.83325 5.53288V7.61621H14.1666V5.53288C14.1666 4.42781 13.7276 3.368 12.9462 2.5866C12.1648 1.8052 11.105 1.36621 9.99992 1.36621V1.36621Z" stroke="#1E285F" stroke-width="1.4" stroke-linecap="round" stroke-linejoin="round"/>
</svg>
