<svg width="20" height="20" viewBox="0 0 20 20" fill="none" xmlns="http://www.w3.org/2000/svg">
<g clip-path="url(#clip0_322_7501)">
<path d="M14.1667 7.61627H5.83333C4.68274 7.61627 3.75 8.54901 3.75 9.69961V15.9496C3.75 17.1002 4.68274 18.0329 5.83333 18.0329H14.1667C15.3173 18.0329 16.25 17.1002 16.25 15.9496V9.69961C16.25 8.54901 15.3173 7.61627 14.1667 7.61627Z" stroke="#FB5660" stroke-width="1.4" stroke-linecap="round" stroke-linejoin="round"/>
<path d="M10.0002 1.36627C8.89509 1.36627 7.83529 1.80526 7.05388 2.58666C6.27248 3.36806 5.8335 4.42787 5.8335 5.53294V7.61627H14.1668V5.53294C14.1668 4.42787 13.7278 3.36806 12.9464 2.58666C12.165 1.80526 11.1052 1.36627 10.0002 1.36627V1.36627Z" stroke="#FB5660" stroke-width="1.4" stroke-linecap="round" stroke-linejoin="round"/>
<path d="M14.1667 7.61627H5.83333C4.68274 7.61627 3.75 8.54901 3.75 9.69961V15.9496C3.75 17.1002 4.68274 18.0329 5.83333 18.0329H14.1667C15.3173 18.0329 16.25 17.1002 16.25 15.9496V9.69961C16.25 8.54901 15.3173 7.61627 14.1667 7.61627Z" stroke="#5D5A88" stroke-width="1.66667" stroke-linecap="round" stroke-linejoin="round"/>
<path d="M10.0002 1.36627C8.89509 1.36627 7.83529 1.80526 7.05388 2.58666C6.27248 3.36806 5.8335 4.42787 5.8335 5.53294V7.61627H14.1668V5.53294C14.1668 4.42787 13.7278 3.36806 12.9464 2.58666C12.165 1.80526 11.1052 1.36627 10.0002 1.36627V1.36627Z" stroke="#5D5A88" stroke-width="1.66667" stroke-linecap="round" stroke-linejoin="round"/>
</g>
<defs>
<clipPath id="clip0_322_7501">
<rect width="20" height="20" fill="white"/>
</clipPath>
</defs>
</svg>
