<svg width="20" height="20" viewBox="0 0 20 20" fill="none" xmlns="http://www.w3.org/2000/svg">
<g clip-path="url(#clip0_303_1581)">
<path d="M14.1667 7.61627H5.83333C4.68274 7.61627 3.75 8.54901 3.75 9.69961V15.9496C3.75 17.1002 4.68274 18.0329 5.83333 18.0329H14.1667C15.3173 18.0329 16.25 17.1002 16.25 15.9496V9.69961C16.25 8.54901 15.3173 7.61627 14.1667 7.61627Z" stroke="#FB5660" stroke-width="1.4" stroke-linecap="round" stroke-linejoin="round"/>
<path d="M9.99992 1.36627C8.89485 1.36627 7.83504 1.80526 7.05364 2.58666C6.27224 3.36806 5.83325 4.42787 5.83325 5.53294V7.61627H14.1666V5.53294C14.1666 4.42787 13.7276 3.36806 12.9462 2.58666C12.1648 1.80526 11.105 1.36627 9.99992 1.36627V1.36627Z" stroke="#FB5660" stroke-width="1.4" stroke-linecap="round" stroke-linejoin="round"/>
<path d="M14.1667 7.61627H5.83333C4.68274 7.61627 3.75 8.54901 3.75 9.69961V15.9496C3.75 17.1002 4.68274 18.0329 5.83333 18.0329H14.1667C15.3173 18.0329 16.25 17.1002 16.25 15.9496V9.69961C16.25 8.54901 15.3173 7.61627 14.1667 7.61627Z" stroke="#5D5A88" stroke-width="1.66667" stroke-linecap="round" stroke-linejoin="round"/>
<path d="M9.99992 1.36627C8.89485 1.36627 7.83504 1.80526 7.05364 2.58666C6.27224 3.36806 5.83325 4.42787 5.83325 5.53294V7.61627H14.1666V5.53294C14.1666 4.42787 13.7276 3.36806 12.9462 2.58666C12.1648 1.80526 11.105 1.36627 9.99992 1.36627V1.36627Z" stroke="#5D5A88" stroke-width="1.66667" stroke-linecap="round" stroke-linejoin="round"/>
</g>
<defs>
<clipPath id="clip0_303_1581">
<rect width="20" height="20" fill="white"/>
</clipPath>
</defs>
</svg>
