<svg width="21" height="20" viewBox="0 0 21 20" fill="none" xmlns="http://www.w3.org/2000/svg">
<path d="M14.4811 7.61627H6.14779C4.99719 7.61627 4.06445 8.54901 4.06445 9.69961V15.9496C4.06445 17.1002 4.99719 18.0329 6.14779 18.0329H14.4811C15.6317 18.0329 16.5645 17.1002 16.5645 15.9496V9.69961C16.5645 8.54901 15.6317 7.61627 14.4811 7.61627Z" stroke="#1E285F" stroke-width="1.4" stroke-linecap="round" stroke-linejoin="round"/>
<path d="M10.3144 1.36627C9.2093 1.36627 8.14949 1.80526 7.36809 2.58666C6.58669 3.36806 6.14771 4.42787 6.14771 5.53294V7.61627H14.481V5.53294C14.481 4.42787 14.0421 3.36806 13.2607 2.58666C12.4792 1.80526 11.4194 1.36627 10.3144 1.36627V1.36627Z" stroke="#1E285F" stroke-width="1.4" stroke-linecap="round" stroke-linejoin="round"/>
</svg>
