<svg width="262" height="36" viewBox="0 0 262 36" fill="none" xmlns="http://www.w3.org/2000/svg">
<path d="M52.9317 29.3372V27.1591C54.1763 29.2438 56.541 29.7105 57.8789 29.7105C61.8616 29.7105 65.2531 26.3191 65.2531 21.3407C65.2531 16.5802 62.2039 12.9398 57.7234 12.9398C56.1987 12.9398 54.4563 13.4687 53.3673 15.1178V7.09021H47.9534V29.3372H52.9317ZM53.2429 21.2785C53.2429 19.0382 54.6741 17.6692 56.5721 17.6692C58.3457 17.6692 59.808 19.0382 59.808 21.2785C59.808 23.5187 58.3457 24.9811 56.5721 24.9811C54.6741 24.9811 53.2429 23.5499 53.2429 21.2785Z" fill="#5D5A88"/>
<path d="M78.8675 13.0642C78.6185 12.9709 78.2763 12.9398 77.8718 12.9398C75.756 12.9398 74.2003 14.091 73.3602 16.0512V13.3131H67.9773V29.3372H73.3913V23.4565C73.3913 20.0961 74.9159 18.0114 77.654 18.0114C78.214 18.0114 78.6185 18.0737 78.8675 18.1981V13.0642Z" fill="#5D5A88"/>
<path d="M80.9519 29.3372H86.3658V13.3131H80.9519V29.3372ZM80.7341 8.83263C80.7341 10.4506 81.9787 11.633 83.6277 11.633C85.2768 11.633 86.5525 10.4506 86.5525 8.83263C86.5525 7.21467 85.2768 6.03232 83.6277 6.03232C81.9787 6.03232 80.7341 7.21467 80.7341 8.83263Z" fill="#5D5A88"/>
<path d="M93.7962 21.4029L88.2889 29.3372H94.294L96.9076 25.1056L99.5212 29.3372H105.526L100.019 21.4029L105.651 13.3131H99.4901L96.9076 17.7625L94.3251 13.3131H88.1644L93.7962 21.4029Z" fill="#5D5A88"/>
<path d="M111.888 16.4556H113.942V22.8652C113.942 26.599 116.057 28.6526 119.542 28.6526C121.129 28.6526 122.343 28.3103 123.183 27.9058V23.332C122.529 23.7987 121.751 23.9231 121.098 23.9231C120.102 23.9231 119.356 23.332 119.356 21.9629V16.4556H122.747V12.2552H119.356V7.93022H114.097V12.2552H111.888V16.4556Z" fill="#8D8BA7"/>
<path d="M139.827 21.5584C139.982 21.0606 140.138 20.096 140.138 19.2559C140.138 14.8688 137.026 11.8818 132.453 11.8818C127.723 11.8818 124.114 15.5533 124.114 20.2827C124.114 25.0121 127.63 28.6526 133.106 28.6526C135.813 28.6526 137.929 27.968 140.045 26.07L137.306 22.6474C136.529 23.3942 135.253 24.1409 133.51 24.1409C131.675 24.1409 129.932 23.3631 129.683 21.5584H139.827ZM132.328 16.1756C133.728 16.1756 134.817 17.0468 134.911 18.4158V18.447H129.59C129.683 16.9846 130.928 16.1756 132.328 16.1756Z" fill="#8D8BA7"/>
<path d="M142.799 12.2552V28.2792H148.213V19.8471C148.213 17.8558 149.24 16.6112 150.764 16.6112C152.382 16.6112 153.253 17.6069 153.253 19.4737V28.2792H158.667V19.8471C158.667 17.8558 159.756 16.6112 161.219 16.6112C162.837 16.6112 163.708 17.6069 163.708 19.4737V28.2792H169.122V18.5092C169.122 14.3709 166.819 11.8818 162.93 11.8818C160.223 11.8818 158.761 13.0952 157.672 14.4954C156.583 12.7841 154.84 11.8818 152.476 11.8818C150.578 11.8818 149.053 12.5352 147.964 14.1531V12.2552H142.799Z" fill="#8D8BA7"/>
<path d="M172.789 34.5021H178.203V26.7235C179.23 28.217 181.035 28.6526 182.559 28.6526C187.04 28.6526 190.089 25.0121 190.089 20.2516C190.089 15.2733 186.604 11.8818 182.622 11.8818C181.315 11.8818 179.106 12.3485 177.768 14.4332V12.2552H172.789V34.5021ZM178.079 20.3138C178.079 18.0425 179.51 16.6112 181.408 16.6112C183.182 16.6112 184.644 18.0736 184.644 20.3138C184.644 22.5541 183.182 23.9231 181.408 23.9231C179.51 23.9231 178.079 22.5541 178.079 20.3138Z" fill="#8D8BA7"/>
<path d="M192.627 23.4875C192.627 26.8479 194.556 28.6526 197.916 28.6526C199.005 28.6526 199.845 28.4659 200.436 28.1858V23.8298C200.032 23.9854 199.658 24.0165 199.378 24.0165C198.134 24.0165 198.04 23.2386 198.04 22.4919V6.03223H192.627V23.4875Z" fill="#8D8BA7"/>
<path d="M207.13 28.6526C209.246 28.6526 210.646 27.7191 211.268 26.5057V28.2792H216.278V18.2603C216.278 14.2776 213.539 11.8818 208.903 11.8818C205.761 11.8818 203.178 13.2508 201.809 14.9932L204.641 18.3847C205.481 17.4202 206.788 16.4867 208.623 16.4867C209.961 16.4867 211.113 16.9535 211.113 18.2914V18.3225L206.974 19.1315C203.614 19.8471 201.747 21.4651 201.747 23.8298C201.747 26.6612 204.018 28.6526 207.13 28.6526ZM211.113 21.5895V21.8385C211.113 23.612 210.117 24.7632 208.406 24.7632C207.441 24.7632 206.912 24.2654 206.912 23.4875C206.912 22.7097 207.534 22.3052 208.499 22.0874L211.113 21.5895Z" fill="#8D8BA7"/>
<path d="M218.206 16.4556H220.26V22.8652C220.26 26.599 222.376 28.6526 225.861 28.6526C227.447 28.6526 228.661 28.3103 229.501 27.9058V23.332C228.848 23.7987 228.07 23.9231 227.416 23.9231C226.421 23.9231 225.674 23.332 225.674 21.9629V16.4556H229.065V12.2552H225.674V7.93022H220.416V12.2552H218.206V16.4556Z" fill="#8D8BA7"/>
<path d="M246.145 21.5584C246.301 21.0606 246.456 20.096 246.456 19.2559C246.456 14.8688 243.345 11.8818 238.771 11.8818C234.042 11.8818 230.432 15.5533 230.432 20.2827C230.432 25.0121 233.948 28.6526 239.424 28.6526C242.131 28.6526 244.247 27.968 246.363 26.07L243.625 22.6474C242.847 23.3942 241.571 24.1409 239.829 24.1409C237.993 24.1409 236.251 23.3631 236.002 21.5584H246.145ZM238.647 16.1756C240.047 16.1756 241.136 17.0468 241.229 18.4158V18.447H235.908C236.002 16.9846 237.246 16.1756 238.647 16.1756Z" fill="#8D8BA7"/>
<path d="M254.656 28.6526C258.638 28.6526 261.314 26.4434 261.314 23.5809C261.314 20.4072 258.856 19.5671 256.336 18.5714C254.065 17.6069 253.1 17.4513 253.1 16.8601C253.1 16.2689 253.816 15.9267 254.656 15.9267C256.149 15.9267 256.989 16.6423 257.518 17.5446L260.879 15.1177C259.883 13.2197 257.549 11.8818 254.811 11.8818C251.202 11.8818 248.184 13.6242 248.184 16.829C248.184 19.4115 249.957 20.6872 253.1 21.8073C255.309 22.5852 256.398 22.8652 256.398 23.7053C256.398 24.2965 255.807 24.6077 254.718 24.6077C253.1 24.6077 251.855 23.612 251.109 22.3363L247.655 24.981C248.993 27.3457 251.669 28.6526 254.656 28.6526Z" fill="#8D8BA7"/>
<path fill-rule="evenodd" clip-rule="evenodd" d="M29.5229 10.4791C32.1887 10.4791 34.3497 8.31801 34.3497 5.6522C34.3497 2.98638 32.1887 0.825317 29.5229 0.825317C26.8571 0.825317 24.696 2.98638 24.696 5.6522C24.696 8.31801 26.8571 10.4791 29.5229 10.4791Z" fill="#8D8BA7"/>
<path fill-rule="evenodd" clip-rule="evenodd" d="M29.5226 22.602C32.1884 22.602 34.3495 20.441 34.3495 17.7752C34.3495 15.1095 32.1884 12.9485 29.5226 12.9485C26.8568 12.9485 24.6957 15.1095 24.6957 17.7752C24.6957 20.441 26.8568 22.602 29.5226 22.602Z" fill="#8D8BA7"/>
<path fill-rule="evenodd" clip-rule="evenodd" d="M29.5226 35.1746C32.1884 35.1746 34.3495 33.0135 34.3495 30.3477C34.3495 27.6819 32.1884 25.5208 29.5226 25.5208C26.8568 25.5208 24.6957 27.6819 24.6957 30.3477C24.6957 33.0135 26.8568 35.1746 29.5226 35.1746Z" fill="#8D8BA7"/>
<path fill-rule="evenodd" clip-rule="evenodd" d="M16.9506 22.602C19.6164 22.602 21.7774 20.441 21.7774 17.7753C21.7774 15.1096 19.6164 12.9486 16.9506 12.9486C14.2849 12.9486 12.1239 15.1096 12.1239 17.7753C12.1239 20.441 14.2849 22.602 16.9506 22.602Z" fill="#8D8BA7"/>
<path fill-rule="evenodd" clip-rule="evenodd" d="M16.9504 35.1747C19.6162 35.1747 21.7772 33.0136 21.7772 30.3478C21.7772 27.682 19.6162 25.5209 16.9504 25.5209C14.2847 25.5209 12.1237 27.682 12.1237 30.3478C12.1237 33.0136 14.2847 35.1747 16.9504 35.1747Z" fill="#8D8BA7"/>
<path fill-rule="evenodd" clip-rule="evenodd" d="M4.82682 35.1746C7.49263 35.1746 9.6537 33.0135 9.6537 30.3477C9.6537 27.6819 7.49263 25.5208 4.82682 25.5208C2.16101 25.5208 -6.10352e-05 27.6819 -6.10352e-05 30.3477C-6.10352e-05 33.0135 2.16101 35.1746 4.82682 35.1746Z" fill="#8D8BA7"/>
</svg>
