<svg width="113" height="37" viewBox="0 0 113 37" fill="none" xmlns="http://www.w3.org/2000/svg">
<path d="M14.4396 0.0758057H15.4328C18.8811 0.151569 22.2731 1.55318 24.7094 4.03442C23.8098 4.96252 22.8915 5.85274 22.0107 6.78083C20.6427 5.53074 18.9935 4.56476 17.1944 4.22383C14.5333 3.65561 11.666 4.16701 9.43588 5.70121C6.99962 7.31117 5.35046 10.0386 4.99439 12.9555C4.60084 15.8345 5.40668 18.865 7.26198 21.1C9.04233 23.2782 11.7597 24.642 14.5708 24.7367C17.1944 24.8882 19.9305 24.0737 21.8421 22.2175C23.3413 20.9106 24.0347 18.9219 24.2596 16.9899C21.1487 16.9899 18.0378 17.0088 14.9268 16.9899V13.0881H28.0264C28.7011 17.274 27.7266 21.9903 24.5782 24.9829C22.4792 27.1043 19.5745 28.3543 16.6135 28.6006C13.7462 28.8847 10.7852 28.3354 8.23649 26.9338C5.18179 25.2859 2.74553 22.5017 1.54614 19.2249C0.421712 16.2133 0.402971 12.804 1.45244 9.77347C2.4082 7.00812 4.24477 4.56476 6.60607 2.8601C8.87366 1.17437 11.6285 0.246272 14.4396 0.0758057Z" fill="#767494"/>
<path d="M89.5893 1.06082H93.5997V28.1082C92.2692 28.1082 90.9199 28.1271 89.5893 28.0892C89.608 19.0924 89.5893 10.0766 89.5893 1.06082V1.06082Z" fill="#767494"/>
<path d="M36.9464 10.4365C39.4201 9.96303 42.1 10.4934 44.1427 11.9897C45.998 13.3155 47.2911 15.399 47.6847 17.6719C48.1907 20.3046 47.5535 23.1836 45.8668 25.267C44.049 27.5967 41.0693 28.8468 38.1645 28.6574C35.5034 28.5059 32.9172 27.1611 31.343 24.964C29.5626 22.5396 29.1316 19.206 30.1061 16.365C31.0806 13.3155 33.8355 10.9858 36.9464 10.4365V10.4365ZM37.5086 14.0353C36.4966 14.3004 35.5596 14.8876 34.8849 15.721C33.0671 17.9181 33.1795 21.4979 35.1848 23.5434C36.3279 24.7178 38.0521 25.267 39.645 24.945C41.1255 24.6799 42.4186 23.676 43.1307 22.3502C44.3676 20.0963 44.0115 16.99 42.1188 15.2285C40.9006 14.0921 39.1203 13.6186 37.5086 14.0353Z" fill="#767494"/>
<path d="M56.8097 10.4364C59.6396 9.8871 62.7317 10.6826 64.8494 12.6903C68.2977 15.8156 68.6725 21.6683 65.7302 25.267C63.9499 27.5399 61.0638 28.79 58.2153 28.6574C55.4979 28.5817 52.818 27.2179 51.2063 24.964C49.3885 22.4827 48.995 19.0734 50.0257 16.1754C51.0564 13.2207 53.755 10.9667 56.8097 10.4364V10.4364ZM57.372 14.0351C56.36 14.3003 55.4229 14.8875 54.7483 15.7019C52.9492 17.8612 53.0242 21.3842 54.9544 23.4487C56.0976 24.6799 57.878 25.286 59.5271 24.945C60.9889 24.6609 62.3007 23.676 63.0128 22.3501C64.231 20.0772 63.8749 16.971 61.9634 15.2095C60.7452 14.073 58.9649 13.6184 57.372 14.0351Z" fill="#767494"/>
<path d="M73.6595 11.535C75.8147 10.1713 78.682 9.7925 81.0058 10.9668C81.7367 11.2888 82.3364 11.8381 82.9173 12.3874C82.9361 11.876 82.9173 11.3456 82.9361 10.8153C84.1917 10.8342 85.4473 10.8153 86.7216 10.8342V27.5399C86.7029 30.0591 86.0657 32.7297 84.2666 34.567C82.2989 36.5936 79.2817 37.2186 76.5643 36.802C73.6595 36.3663 71.1295 34.226 70.0051 31.5175C71.1295 30.9682 72.3102 30.5326 73.4721 30.0212C74.128 31.5743 75.4586 32.9002 77.1265 33.2032C78.7944 33.5063 80.7247 33.0896 81.8116 31.688C82.9735 30.2485 82.9735 28.2786 82.9173 26.5171C82.0553 27.3695 81.062 28.1271 79.8626 28.4112C77.2577 29.1499 74.3904 28.2408 72.3852 26.4603C70.3612 24.6799 69.1618 21.9335 69.2742 19.206C69.3305 16.1187 71.0546 13.145 73.6595 11.535V11.535ZM77.5388 13.9595C76.3956 14.1489 75.3274 14.7928 74.5965 15.6831C72.8349 17.8044 72.8349 21.1948 74.6153 23.2783C75.6273 24.5094 77.2577 25.1913 78.8319 25.0208C80.3124 24.8693 81.6804 23.9223 82.4113 22.6154C83.6482 20.3993 83.4421 17.3877 81.7742 15.4558C80.7434 14.2625 79.0943 13.6753 77.5388 13.9595V13.9595Z" fill="#767494"/>
<path d="M98.413 12.501C100.662 10.3796 104.129 9.65989 107.015 10.7774C109.751 11.8191 111.494 14.4519 112.375 17.1604C108.308 18.8651 104.26 20.5508 100.193 22.2555C100.756 23.3351 101.618 24.32 102.78 24.7178C104.41 25.3049 106.359 25.0966 107.727 23.998C108.271 23.5813 108.702 23.0321 109.114 22.5017C110.145 23.2025 111.175 23.8844 112.206 24.5852C110.744 26.8013 108.289 28.3544 105.647 28.6006C102.723 28.9605 99.6124 27.8241 97.7196 25.5133C94.6087 21.8767 94.9086 15.7778 98.413 12.501V12.501ZM100.418 16.005C99.7811 16.9331 99.5187 18.0696 99.5375 19.1871C102.255 18.0506 104.972 16.9142 107.69 15.7588C107.24 14.6981 106.153 14.0541 105.047 13.8837C103.267 13.5617 101.412 14.5277 100.418 16.005V16.005Z" fill="#767494"/>
</svg>
