<svg width="136" height="35" viewBox="0 0 136 35" fill="none" xmlns="http://www.w3.org/2000/svg">
<path d="M44.0064 13.8046C44.0064 11.3854 41.654 8.81613 37.5832 8.81613C33.0119 8.81613 27.9901 12.1696 27.2226 18.8597C26.4385 25.6166 30.6428 28.6197 34.8805 28.6197C39.1181 28.6197 41.3371 26.968 43.606 24.7658C41.654 22.3133 39.1348 23.4477 38.651 23.698C38.1171 23.9649 37.4331 24.332 36.0316 24.332C34.3966 24.332 32.7283 23.5979 32.7283 20.5448C43.2056 19.5104 44.0064 16.2237 44.0064 13.8046ZM38.8178 14.205C38.7511 14.9557 38.4508 16.2404 33.1454 16.9578C34.2632 12.9871 36.3987 12.6868 37.383 12.6868C38.3006 12.6868 38.8845 13.4042 38.8178 14.205ZM21.0664 14.8556C21.0664 14.8556 18.8141 21.9295 18.6305 22.5135C18.5638 21.9128 16.9121 9.21654 16.9121 9.21654C13.0749 9.21654 11.0228 11.9527 9.93832 14.839C9.93832 14.839 7.20219 21.9295 6.96862 22.5301C6.95194 21.9796 6.55153 14.9224 6.55153 14.9224C6.31796 11.3854 3.08132 9.23323 0.461975 9.23323L3.63188 28.4695C7.65265 28.4529 9.82153 25.7334 10.956 22.8471C10.956 22.8471 13.3752 16.5907 13.4753 16.3071C13.4919 16.5741 15.2104 28.4695 15.2104 28.4695C19.2478 28.4695 21.4167 25.9169 22.5846 23.1308L28.2403 9.23323C24.2529 9.23323 22.1508 11.9527 21.0664 14.8556ZM58.8216 8.78277C56.3357 8.78277 54.4338 10.1341 52.8321 12.1195V12.1028L54.2669 0.541016C50.9636 0.541016 48.2775 3.41061 47.7603 7.68164L45.2577 28.3194C47.1597 28.3194 49.1784 27.7688 50.2628 26.3674C51.2305 27.6187 52.682 28.6197 54.8342 28.6197C60.4065 28.6197 64.2271 22.1464 64.2271 16.0735C64.1937 10.5346 61.5077 8.78277 58.8216 8.78277ZM58.3044 18.7096C57.7205 22.0964 55.8352 24.3987 54.0167 24.3987C52.1815 24.3987 51.3973 23.5812 51.3973 23.5812C51.7477 20.6115 51.9646 18.793 52.6319 17.2247C53.2993 15.6565 54.8842 13.1539 56.5359 13.1539C58.1542 13.1539 58.8883 15.3061 58.3044 18.7096ZM78.1413 9.23323H74.254L74.2707 9.03302C74.5376 6.4971 75.1382 5.1624 77.1236 4.94551C78.475 4.81204 79.0756 4.11133 79.2257 3.34388C79.3425 2.74326 79.7096 0.657802 79.7096 0.657802C71.9016 0.60775 69.4491 3.97786 68.8151 9.11644L68.7984 9.23323H68.715C67.4471 9.23323 66.0456 10.668 65.8121 12.4865L65.7286 13.1539H68.3313L66.1457 31.2057L65.4784 34.4423C65.5618 34.4423 65.6619 34.459 65.7453 34.459C69.399 34.3255 71.7348 31.4392 72.252 27.2516L73.9537 13.1539H75.1716C76.3728 13.1539 77.7743 11.9527 78.0245 9.95063L78.1413 9.23323ZM98.362 8.89955C93.874 8.89955 89.6364 12.2029 88.3351 17.3916C87.0337 22.5802 89.0024 28.7198 95.6091 28.7198C102.199 28.7198 106.003 22.3299 106.003 17.0078C106.003 11.7191 102.416 8.89955 98.362 8.89955ZM100.18 18.5427C99.9469 20.8951 98.9125 24.4654 96.0763 24.4654C93.2234 24.4654 93.6238 20.2945 93.9074 18.3092C94.2077 16.1903 95.3923 13.1706 97.9449 13.1706C100.231 13.1706 100.447 15.89 100.18 18.5427ZM128.176 14.8556C128.176 14.8556 125.923 21.9295 125.74 22.5135C125.673 21.9128 124.021 9.21654 124.021 9.21654C120.184 9.21654 118.132 11.9527 117.048 14.839C117.048 14.839 114.312 21.9295 114.078 22.5301C114.061 21.9796 113.661 14.9224 113.661 14.9224C113.427 11.3854 110.191 9.23323 107.571 9.23323L110.725 28.4695C114.745 28.4529 116.914 25.7334 118.049 22.8471C118.049 22.8471 120.468 16.5907 120.551 16.3071C120.585 16.5741 122.286 28.4695 122.286 28.4695C126.324 28.4695 128.493 25.9169 129.661 23.1308L135.316 9.23323C131.346 9.23323 129.243 11.9527 128.176 14.8556ZM81.8117 0.657802L78.5417 27.0347L77.8744 30.2881C77.9578 30.2881 78.0579 30.3047 78.1413 30.3047C81.6616 30.2547 84.1641 27.1682 84.6313 23.2809L86.5165 8.14878C87.0838 3.5274 84.331 0.657802 81.8117 0.657802Z" fill="#767494"/>
</svg>
