<svg width="262" height="36" viewBox="0 0 262 36" fill="none" xmlns="http://www.w3.org/2000/svg">
<path d="M52.9317 29.3371V27.1591C54.1763 29.2437 56.541 29.7105 57.8789 29.7105C61.8616 29.7105 65.2531 26.319 65.2531 21.3406C65.2531 16.5801 62.2039 12.9397 57.7234 12.9397C56.1987 12.9397 54.4563 13.4686 53.3673 15.1177V7.09012H47.9534V29.3371H52.9317ZM53.2429 21.2784C53.2429 19.0381 54.6741 17.6691 56.5721 17.6691C58.3457 17.6691 59.808 19.0381 59.808 21.2784C59.808 23.5186 58.3457 24.981 56.5721 24.981C54.6741 24.981 53.2429 23.5498 53.2429 21.2784Z" fill="#5D5A88"/>
<path d="M78.8675 13.0641C78.6185 12.9708 78.2763 12.9397 77.8718 12.9397C75.756 12.9397 74.2003 14.0909 73.3602 16.0511V13.313H67.9773V29.3371H73.3913V23.4564C73.3913 20.096 74.9159 18.0114 77.654 18.0114C78.214 18.0114 78.6185 18.0736 78.8675 18.198V13.0641Z" fill="#5D5A88"/>
<path d="M80.9519 29.3371H86.3658V13.313H80.9519V29.3371ZM80.7341 8.83254C80.7341 10.4505 81.9787 11.6329 83.6277 11.6329C85.2768 11.6329 86.5525 10.4505 86.5525 8.83254C86.5525 7.21458 85.2768 6.03223 83.6277 6.03223C81.9787 6.03223 80.7341 7.21458 80.7341 8.83254Z" fill="#5D5A88"/>
<path d="M93.7961 21.4028L88.2889 29.3371H94.294L96.9076 25.1055L99.5212 29.3371H105.526L100.019 21.4028L105.651 13.313H99.4901L96.9076 17.7624L94.3251 13.313H88.1644L93.7961 21.4028Z" fill="#5D5A88"/>
<path d="M111.888 16.4556H113.942V22.8652C113.942 26.599 116.057 28.6526 119.542 28.6526C121.129 28.6526 122.342 28.3103 123.183 27.9058V23.332C122.529 23.7987 121.751 23.9231 121.098 23.9231C120.102 23.9231 119.355 23.332 119.355 21.9629V16.4556H122.747V12.2552H119.355V7.93022H114.097V12.2552H111.888V16.4556Z" fill="#8D8BA7"/>
<path d="M139.827 21.5584C139.982 21.0606 140.138 20.096 140.138 19.2559C140.138 14.8688 137.026 11.8818 132.453 11.8818C127.723 11.8818 124.114 15.5533 124.114 20.2827C124.114 25.0121 127.63 28.6526 133.106 28.6526C135.813 28.6526 137.929 27.968 140.044 26.07L137.306 22.6474C136.529 23.3942 135.253 24.1409 133.51 24.1409C131.675 24.1409 129.932 23.3631 129.683 21.5584H139.827ZM132.328 16.1756C133.728 16.1756 134.817 17.0468 134.911 18.4158V18.447H129.59C129.683 16.9846 130.928 16.1756 132.328 16.1756Z" fill="#8D8BA7"/>
<path d="M142.799 12.2552V28.2792H148.213V19.8471C148.213 17.8558 149.24 16.6112 150.764 16.6112C152.382 16.6112 153.253 17.6069 153.253 19.4737V28.2792H158.667V19.8471C158.667 17.8558 159.756 16.6112 161.219 16.6112C162.837 16.6112 163.708 17.6069 163.708 19.4737V28.2792H169.122V18.5092C169.122 14.3709 166.819 11.8818 162.93 11.8818C160.223 11.8818 158.761 13.0952 157.672 14.4954C156.583 12.7841 154.84 11.8818 152.476 11.8818C150.578 11.8818 149.053 12.5352 147.964 14.1531V12.2552H142.799Z" fill="#8D8BA7"/>
<path d="M172.789 34.5021H178.203V26.7235C179.23 28.217 181.035 28.6526 182.559 28.6526C187.04 28.6526 190.089 25.0121 190.089 20.2516C190.089 15.2733 186.604 11.8818 182.621 11.8818C181.315 11.8818 179.105 12.3485 177.768 14.4332V12.2552H172.789V34.5021ZM178.079 20.3138C178.079 18.0425 179.51 16.6112 181.408 16.6112C183.182 16.6112 184.644 18.0736 184.644 20.3138C184.644 22.5541 183.182 23.9231 181.408 23.9231C179.51 23.9231 178.079 22.5541 178.079 20.3138Z" fill="#8D8BA7"/>
<path d="M192.626 23.4875C192.626 26.8479 194.556 28.6526 197.916 28.6526C199.005 28.6526 199.845 28.4659 200.436 28.1858V23.8298C200.032 23.9854 199.658 24.0165 199.378 24.0165C198.134 24.0165 198.04 23.2386 198.04 22.4919V6.03223H192.626V23.4875Z" fill="#8D8BA7"/>
<path d="M207.13 28.6526C209.246 28.6526 210.646 27.7191 211.268 26.5057V28.2792H216.278V18.2603C216.278 14.2776 213.539 11.8818 208.903 11.8818C205.761 11.8818 203.178 13.2508 201.809 14.9932L204.641 18.3847C205.481 17.4202 206.788 16.4867 208.623 16.4867C209.961 16.4867 211.112 16.9535 211.112 18.2914V18.3225L206.974 19.1315C203.614 19.8471 201.747 21.4651 201.747 23.8298C201.747 26.6612 204.018 28.6526 207.13 28.6526ZM211.112 21.5895V21.8385C211.112 23.612 210.117 24.7632 208.405 24.7632C207.441 24.7632 206.912 24.2654 206.912 23.4875C206.912 22.7097 207.534 22.3052 208.499 22.0874L211.112 21.5895Z" fill="#8D8BA7"/>
<path d="M218.206 16.4556H220.26V22.8652C220.26 26.599 222.376 28.6526 225.861 28.6526C227.447 28.6526 228.661 28.3103 229.501 27.9058V23.332C228.848 23.7987 228.07 23.9231 227.416 23.9231C226.421 23.9231 225.674 23.332 225.674 21.9629V16.4556H229.065V12.2552H225.674V7.93022H220.415V12.2552H218.206V16.4556Z" fill="#8D8BA7"/>
<path d="M246.145 21.5584C246.301 21.0606 246.456 20.096 246.456 19.2559C246.456 14.8688 243.345 11.8818 238.771 11.8818C234.042 11.8818 230.432 15.5533 230.432 20.2827C230.432 25.0121 233.948 28.6526 239.424 28.6526C242.131 28.6526 244.247 27.968 246.363 26.07L243.625 22.6474C242.847 23.3942 241.571 24.1409 239.829 24.1409C237.993 24.1409 236.251 23.3631 236.002 21.5584H246.145ZM238.646 16.1756C240.047 16.1756 241.136 17.0468 241.229 18.4158V18.447H235.908C236.002 16.9846 237.246 16.1756 238.646 16.1756Z" fill="#8D8BA7"/>
<path d="M254.656 28.6526C258.638 28.6526 261.314 26.4434 261.314 23.5809C261.314 20.4072 258.856 19.5671 256.336 18.5714C254.065 17.6069 253.1 17.4513 253.1 16.8601C253.1 16.2689 253.816 15.9267 254.656 15.9267C256.149 15.9267 256.989 16.6423 257.518 17.5446L260.879 15.1177C259.883 13.2197 257.549 11.8818 254.811 11.8818C251.202 11.8818 248.184 13.6242 248.184 16.829C248.184 19.4115 249.957 20.6872 253.1 21.8073C255.309 22.5852 256.398 22.8652 256.398 23.7053C256.398 24.2965 255.807 24.6077 254.718 24.6077C253.1 24.6077 251.855 23.612 251.109 22.3363L247.655 24.981C248.993 27.3457 251.669 28.6526 254.656 28.6526Z" fill="#8D8BA7"/>
<path fill-rule="evenodd" clip-rule="evenodd" d="M29.5229 10.479C32.1887 10.479 34.3498 8.31789 34.3498 5.65207C34.3498 2.98626 32.1887 0.825195 29.5229 0.825195C26.8571 0.825195 24.696 2.98626 24.696 5.65207C24.696 8.31789 26.8571 10.479 29.5229 10.479Z" fill="#8D8BA7"/>
<path fill-rule="evenodd" clip-rule="evenodd" d="M29.5227 22.6019C32.1885 22.6019 34.3496 20.4409 34.3496 17.7752C34.3496 15.1095 32.1885 12.9485 29.5227 12.9485C26.8569 12.9485 24.6958 15.1095 24.6958 17.7752C24.6958 20.4409 26.8569 22.6019 29.5227 22.6019Z" fill="#8D8BA7"/>
<path fill-rule="evenodd" clip-rule="evenodd" d="M29.5227 35.1745C32.1885 35.1745 34.3496 33.0134 34.3496 30.3476C34.3496 27.6818 32.1885 25.5208 29.5227 25.5208C26.8569 25.5208 24.6958 27.6818 24.6958 30.3476C24.6958 33.0134 26.8569 35.1745 29.5227 35.1745Z" fill="#8D8BA7"/>
<path fill-rule="evenodd" clip-rule="evenodd" d="M16.9505 22.6019C19.6162 22.6019 21.7772 20.4409 21.7772 17.7752C21.7772 15.1095 19.6162 12.9485 16.9505 12.9485C14.2848 12.9485 12.1238 15.1095 12.1238 17.7752C12.1238 20.4409 14.2848 22.6019 16.9505 22.6019Z" fill="#8D8BA7"/>
<path fill-rule="evenodd" clip-rule="evenodd" d="M16.9505 35.1745C19.6162 35.1745 21.7772 33.0134 21.7772 30.3476C21.7772 27.6818 19.6162 25.5208 16.9505 25.5208C14.2848 25.5208 12.1238 27.6818 12.1238 30.3476C12.1238 33.0134 14.2848 35.1745 16.9505 35.1745Z" fill="#8D8BA7"/>
<path fill-rule="evenodd" clip-rule="evenodd" d="M4.82688 35.1745C7.49269 35.1745 9.65376 33.0134 9.65376 30.3476C9.65376 27.6818 7.49269 25.5208 4.82688 25.5208C2.16107 25.5208 0 27.6818 0 30.3476C0 33.0134 2.16107 35.1745 4.82688 35.1745Z" fill="#8D8BA7"/>
</svg>
