<svg width="262" height="36" viewBox="0 0 262 36" fill="none" xmlns="http://www.w3.org/2000/svg">
<path d="M53.6172 29.3372V27.1592C54.8618 29.2439 57.2265 29.7106 58.5644 29.7106C62.5471 29.7106 65.9386 26.3191 65.9386 21.3408C65.9386 16.5802 62.8894 12.9398 58.4088 12.9398C56.8842 12.9398 55.1418 13.4688 54.0528 15.1178V7.09028H48.6389V29.3372H53.6172ZM53.9283 21.2785C53.9283 19.0383 55.3596 17.6692 57.2576 17.6692C59.0311 17.6692 60.4935 19.0383 60.4935 21.2785C60.4935 23.5188 59.0311 24.9812 57.2576 24.9812C55.3596 24.9812 53.9283 23.5499 53.9283 21.2785Z" fill="#5D5A88"/>
<path d="M79.5529 13.0643C79.304 12.9709 78.9618 12.9398 78.5573 12.9398C76.4415 12.9398 74.8857 14.0911 74.0456 16.0513V13.3132H68.6628V29.3372H74.0768V23.4566C74.0768 20.0962 75.6014 18.0115 78.3395 18.0115C78.8995 18.0115 79.304 18.0737 79.5529 18.1982V13.0643Z" fill="#5D5A88"/>
<path d="M81.6374 29.3372H87.0513V13.3132H81.6374V29.3372ZM81.4196 8.83269C81.4196 10.4507 82.6642 11.633 84.3132 11.633C85.9623 11.633 87.238 10.4507 87.238 8.83269C87.238 7.21473 85.9623 6.03238 84.3132 6.03238C82.6642 6.03238 81.4196 7.21473 81.4196 8.83269Z" fill="#5D5A88"/>
<path d="M94.4816 21.403L88.9743 29.3372H94.9795L97.5931 25.1056L100.207 29.3372H106.212L100.705 21.403L106.336 13.3132H100.176L97.5931 17.7626L95.0106 13.3132H88.8499L94.4816 21.403Z" fill="#5D5A88"/>
<path d="M112.573 16.4558H114.627V22.8654C114.627 26.5992 116.743 28.6527 120.228 28.6527C121.815 28.6527 123.028 28.3105 123.868 27.906V23.3321C123.215 23.7989 122.437 23.9233 121.783 23.9233C120.788 23.9233 120.041 23.3321 120.041 21.9631V16.4558H123.432V12.2553H120.041V7.9304H114.783V12.2553H112.573V16.4558Z" fill="#8D8BA7"/>
<path d="M140.512 21.5586C140.668 21.0608 140.823 20.0962 140.823 19.2561C140.823 14.869 137.712 11.882 133.138 11.882C128.409 11.882 124.799 15.5535 124.799 20.2829C124.799 25.0123 128.315 28.6527 133.791 28.6527C136.498 28.6527 138.614 27.9682 140.73 26.0702L137.992 22.6476C137.214 23.3944 135.938 24.1411 134.196 24.1411C132.36 24.1411 130.618 23.3633 130.369 21.5586H140.512ZM133.014 16.1758C134.414 16.1758 135.503 17.047 135.596 18.416V18.4471H130.276C130.369 16.9848 131.613 16.1758 133.014 16.1758Z" fill="#8D8BA7"/>
<path d="M143.484 12.2553V28.2794H148.898V19.8473C148.898 17.856 149.925 16.6114 151.45 16.6114C153.068 16.6114 153.939 17.6071 153.939 19.4739V28.2794H159.353V19.8473C159.353 17.856 160.442 16.6114 161.904 16.6114C163.522 16.6114 164.393 17.6071 164.393 19.4739V28.2794H169.807V18.5094C169.807 14.3711 167.505 11.882 163.616 11.882C160.909 11.882 159.446 13.0954 158.357 14.4956C157.268 12.7843 155.526 11.882 153.161 11.882C151.263 11.882 149.738 12.5354 148.649 14.1533V12.2553H143.484Z" fill="#8D8BA7"/>
<path d="M173.475 34.5023H178.889V26.7236C179.915 28.2171 181.72 28.6527 183.245 28.6527C187.725 28.6527 190.774 25.0123 190.774 20.2518C190.774 15.2735 187.29 11.882 183.307 11.882C182 11.882 179.791 12.3487 178.453 14.4334V12.2553H173.475V34.5023ZM178.764 20.314C178.764 18.0427 180.196 16.6114 182.094 16.6114C183.867 16.6114 185.329 18.0738 185.329 20.314C185.329 22.5543 183.867 23.9233 182.094 23.9233C180.196 23.9233 178.764 22.5543 178.764 20.314Z" fill="#8D8BA7"/>
<path d="M193.312 23.4877C193.312 26.8481 195.241 28.6527 198.602 28.6527C199.691 28.6527 200.531 28.4661 201.122 28.186V23.83C200.717 23.9856 200.344 24.0167 200.064 24.0167C198.819 24.0167 198.726 23.2388 198.726 22.492V6.03241H193.312V23.4877Z" fill="#8D8BA7"/>
<path d="M207.815 28.6527C209.931 28.6527 211.331 27.7193 211.954 26.5058V28.2794H216.963V18.2605C216.963 14.2778 214.225 11.882 209.589 11.882C206.446 11.882 203.864 13.251 202.495 14.9934L205.326 18.3849C206.166 17.4204 207.473 16.4869 209.309 16.4869C210.647 16.4869 211.798 16.9536 211.798 18.2916V18.3227L207.66 19.1317C204.299 19.8473 202.433 21.4653 202.433 23.83C202.433 26.6614 204.704 28.6527 207.815 28.6527ZM211.798 21.5897V21.8386C211.798 23.6122 210.802 24.7634 209.091 24.7634C208.126 24.7634 207.598 24.2656 207.598 23.4877C207.598 22.7098 208.22 22.3054 209.184 22.0876L211.798 21.5897Z" fill="#8D8BA7"/>
<path d="M218.892 16.4558H220.945V22.8654C220.945 26.5992 223.061 28.6527 226.546 28.6527C228.133 28.6527 229.346 28.3105 230.187 27.906V23.3321C229.533 23.7989 228.755 23.9233 228.102 23.9233C227.106 23.9233 226.359 23.3321 226.359 21.9631V16.4558H229.751V12.2553H226.359V7.9304H221.101V12.2553H218.892V16.4558Z" fill="#8D8BA7"/>
<path d="M246.831 21.5586C246.986 21.0608 247.142 20.0962 247.142 19.2561C247.142 14.869 244.03 11.882 239.456 11.882C234.727 11.882 231.118 15.5535 231.118 20.2829C231.118 25.0123 234.634 28.6527 240.11 28.6527C242.817 28.6527 244.933 27.9682 247.048 26.0702L244.31 22.6476C243.532 23.3944 242.257 24.1411 240.514 24.1411C238.679 24.1411 236.936 23.3633 236.687 21.5586H246.831ZM239.332 16.1758C240.732 16.1758 241.821 17.047 241.915 18.416V18.4471H236.594C236.687 16.9848 237.932 16.1758 239.332 16.1758Z" fill="#8D8BA7"/>
<path d="M255.341 28.6527C259.324 28.6527 262 26.4436 262 23.5811C262 20.4074 259.542 19.5673 257.021 18.5716C254.75 17.6071 253.785 17.4515 253.785 16.8603C253.785 16.2691 254.501 15.9269 255.341 15.9269C256.835 15.9269 257.675 16.6425 258.204 17.5448L261.564 15.1179C260.568 13.2199 258.235 11.882 255.497 11.882C251.888 11.882 248.869 13.6244 248.869 16.8292C248.869 19.4117 250.643 20.6874 253.785 21.8075C255.995 22.5854 257.084 22.8654 257.084 23.7055C257.084 24.2967 256.492 24.6078 255.403 24.6078C253.785 24.6078 252.541 23.6122 251.794 22.3365L248.34 24.9812C249.678 27.3459 252.354 28.6527 255.341 28.6527Z" fill="#8D8BA7"/>
<path fill-rule="evenodd" clip-rule="evenodd" d="M30.2085 10.4791C32.8743 10.4791 35.0353 8.31801 35.0353 5.6522C35.0353 2.98638 32.8743 0.825317 30.2085 0.825317C27.5427 0.825317 25.3816 2.98638 25.3816 5.6522C25.3816 8.31801 27.5427 10.4791 30.2085 10.4791Z" fill="#8D8BA7"/>
<path fill-rule="evenodd" clip-rule="evenodd" d="M30.2081 22.602C32.8739 22.602 35.035 20.441 35.035 17.7753C35.035 15.1096 32.8739 12.9486 30.2081 12.9486C27.5423 12.9486 25.3812 15.1096 25.3812 17.7753C25.3812 20.441 27.5423 22.602 30.2081 22.602Z" fill="#8D8BA7"/>
<path fill-rule="evenodd" clip-rule="evenodd" d="M30.2081 35.1747C32.8739 35.1747 35.035 33.0136 35.035 30.3478C35.035 27.682 32.8739 25.5209 30.2081 25.5209C27.5423 25.5209 25.3812 27.682 25.3812 30.3478C25.3812 33.0136 27.5423 35.1747 30.2081 35.1747Z" fill="#8D8BA7"/>
<path fill-rule="evenodd" clip-rule="evenodd" d="M17.6362 22.602C20.3019 22.602 22.4629 20.441 22.4629 17.7753C22.4629 15.1096 20.3019 12.9486 17.6362 12.9486C14.9704 12.9486 12.8094 15.1096 12.8094 17.7753C12.8094 20.441 14.9704 22.602 17.6362 22.602Z" fill="#8D8BA7"/>
<path fill-rule="evenodd" clip-rule="evenodd" d="M17.636 35.1747C20.3017 35.1747 22.4627 33.0136 22.4627 30.3478C22.4627 27.682 20.3017 25.5209 17.636 25.5209C14.9703 25.5209 12.8093 27.682 12.8093 30.3478C12.8093 33.0136 14.9703 35.1747 17.636 35.1747Z" fill="#8D8BA7"/>
<path fill-rule="evenodd" clip-rule="evenodd" d="M5.5123 35.1747C8.17811 35.1747 10.3392 33.0136 10.3392 30.3478C10.3392 27.682 8.17811 25.5209 5.5123 25.5209C2.84649 25.5209 0.685425 27.682 0.685425 30.3478C0.685425 33.0136 2.84649 35.1747 5.5123 35.1747Z" fill="#8D8BA7"/>
</svg>
