<svg width="262" height="36" viewBox="0 0 262 36" fill="none" xmlns="http://www.w3.org/2000/svg">
<path d="M52.9317 29.3372V27.1592C54.1763 29.2439 56.541 29.7106 57.8789 29.7106C61.8616 29.7106 65.2531 26.3191 65.2531 21.3408C65.2531 16.5802 62.2039 12.9398 57.7234 12.9398C56.1987 12.9398 54.4563 13.4688 53.3673 15.1178V7.09028H47.9534V29.3372H52.9317ZM53.2429 21.2785C53.2429 19.0383 54.6741 17.6692 56.5721 17.6692C58.3457 17.6692 59.808 19.0383 59.808 21.2785C59.808 23.5188 58.3457 24.9812 56.5721 24.9812C54.6741 24.9812 53.2429 23.5499 53.2429 21.2785Z" fill="#5D5A88"/>
<path d="M78.8675 13.0643C78.6185 12.9709 78.2763 12.9398 77.8718 12.9398C75.756 12.9398 74.2003 14.0911 73.3602 16.0513V13.3132H67.9773V29.3372H73.3913V23.4566C73.3913 20.0962 74.9159 18.0115 77.654 18.0115C78.214 18.0115 78.6185 18.0737 78.8675 18.1982V13.0643Z" fill="#5D5A88"/>
<path d="M80.9519 29.3372H86.3658V13.3132H80.9519V29.3372ZM80.7341 8.83269C80.7341 10.4507 81.9787 11.633 83.6277 11.633C85.2768 11.633 86.5525 10.4507 86.5525 8.83269C86.5525 7.21473 85.2768 6.03238 83.6277 6.03238C81.9787 6.03238 80.7341 7.21473 80.7341 8.83269Z" fill="#5D5A88"/>
<path d="M93.7961 21.403L88.2889 29.3372H94.294L96.9076 25.1056L99.5212 29.3372H105.526L100.019 21.403L105.651 13.3132H99.4901L96.9076 17.7626L94.3251 13.3132H88.1644L93.7961 21.403Z" fill="#5D5A88"/>
<path d="M111.888 16.4558H113.942V22.8654C113.942 26.5992 116.057 28.6527 119.542 28.6527C121.129 28.6527 122.342 28.3105 123.183 27.906V23.3321C122.529 23.7989 121.751 23.9233 121.098 23.9233C120.102 23.9233 119.355 23.3321 119.355 21.9631V16.4558H122.747V12.2553H119.355V7.9304H114.097V12.2553H111.888V16.4558Z" fill="#8D8BA7"/>
<path d="M139.827 21.5586C139.982 21.0608 140.138 20.0962 140.138 19.2561C140.138 14.869 137.026 11.882 132.453 11.882C127.723 11.882 124.114 15.5535 124.114 20.2829C124.114 25.0123 127.63 28.6527 133.106 28.6527C135.813 28.6527 137.929 27.9682 140.044 26.0702L137.306 22.6476C136.529 23.3944 135.253 24.1411 133.51 24.1411C131.675 24.1411 129.932 23.3633 129.683 21.5586H139.827ZM132.328 16.1758C133.728 16.1758 134.817 17.047 134.911 18.416V18.4471H129.59C129.683 16.9848 130.928 16.1758 132.328 16.1758Z" fill="#8D8BA7"/>
<path d="M142.799 12.2553V28.2794H148.213V19.8473C148.213 17.856 149.24 16.6114 150.764 16.6114C152.382 16.6114 153.253 17.6071 153.253 19.4739V28.2794H158.667V19.8473C158.667 17.856 159.756 16.6114 161.219 16.6114C162.837 16.6114 163.708 17.6071 163.708 19.4739V28.2794H169.122V18.5094C169.122 14.3711 166.819 11.882 162.93 11.882C160.223 11.882 158.761 13.0954 157.672 14.4956C156.583 12.7843 154.84 11.882 152.476 11.882C150.578 11.882 149.053 12.5354 147.964 14.1533V12.2553H142.799Z" fill="#8D8BA7"/>
<path d="M172.789 34.5023H178.203V26.7236C179.23 28.2171 181.035 28.6527 182.559 28.6527C187.04 28.6527 190.089 25.0123 190.089 20.2518C190.089 15.2735 186.604 11.882 182.621 11.882C181.315 11.882 179.105 12.3487 177.768 14.4334V12.2553H172.789V34.5023ZM178.079 20.314C178.079 18.0427 179.51 16.6114 181.408 16.6114C183.182 16.6114 184.644 18.0738 184.644 20.314C184.644 22.5543 183.182 23.9233 181.408 23.9233C179.51 23.9233 178.079 22.5543 178.079 20.314Z" fill="#8D8BA7"/>
<path d="M192.626 23.4877C192.626 26.8481 194.556 28.6527 197.916 28.6527C199.005 28.6527 199.845 28.4661 200.436 28.186V23.83C200.032 23.9856 199.658 24.0167 199.378 24.0167C198.134 24.0167 198.04 23.2388 198.04 22.492V6.03241H192.626V23.4877Z" fill="#8D8BA7"/>
<path d="M207.13 28.6527C209.246 28.6527 210.646 27.7193 211.268 26.5058V28.2794H216.278V18.2605C216.278 14.2778 213.539 11.882 208.903 11.882C205.761 11.882 203.178 13.251 201.809 14.9934L204.641 18.3849C205.481 17.4204 206.788 16.4869 208.623 16.4869C209.961 16.4869 211.112 16.9536 211.112 18.2916V18.3227L206.974 19.1317C203.614 19.8473 201.747 21.4653 201.747 23.83C201.747 26.6614 204.018 28.6527 207.13 28.6527ZM211.112 21.5897V21.8386C211.112 23.6122 210.117 24.7634 208.405 24.7634C207.441 24.7634 206.912 24.2656 206.912 23.4877C206.912 22.7098 207.534 22.3054 208.499 22.0876L211.112 21.5897Z" fill="#8D8BA7"/>
<path d="M218.206 16.4558H220.26V22.8654C220.26 26.5992 222.376 28.6527 225.861 28.6527C227.447 28.6527 228.661 28.3105 229.501 27.906V23.3321C228.848 23.7989 228.07 23.9233 227.416 23.9233C226.421 23.9233 225.674 23.3321 225.674 21.9631V16.4558H229.065V12.2553H225.674V7.9304H220.415V12.2553H218.206V16.4558Z" fill="#8D8BA7"/>
<path d="M246.145 21.5586C246.301 21.0608 246.456 20.0962 246.456 19.2561C246.456 14.869 243.345 11.882 238.771 11.882C234.042 11.882 230.432 15.5535 230.432 20.2829C230.432 25.0123 233.948 28.6527 239.424 28.6527C242.131 28.6527 244.247 27.9682 246.363 26.0702L243.625 22.6476C242.847 23.3944 241.571 24.1411 239.829 24.1411C237.993 24.1411 236.251 23.3633 236.002 21.5586H246.145ZM238.646 16.1758C240.047 16.1758 241.136 17.047 241.229 18.416V18.4471H235.908C236.002 16.9848 237.246 16.1758 238.646 16.1758Z" fill="#8D8BA7"/>
<path d="M254.656 28.6527C258.638 28.6527 261.314 26.4436 261.314 23.5811C261.314 20.4074 258.856 19.5673 256.336 18.5716C254.065 17.6071 253.1 17.4515 253.1 16.8603C253.1 16.2691 253.816 15.9269 254.656 15.9269C256.149 15.9269 256.989 16.6425 257.518 17.5448L260.879 15.1179C259.883 13.2199 257.549 11.882 254.811 11.882C251.202 11.882 248.184 13.6244 248.184 16.8292C248.184 19.4117 249.957 20.6874 253.1 21.8075C255.309 22.5854 256.398 22.8654 256.398 23.7055C256.398 24.2967 255.807 24.6078 254.718 24.6078C253.1 24.6078 251.855 23.6122 251.109 22.3365L247.655 24.9812C248.993 27.3459 251.669 28.6527 254.656 28.6527Z" fill="#8D8BA7"/>
<path fill-rule="evenodd" clip-rule="evenodd" d="M29.5229 10.4791C32.1887 10.4791 34.3498 8.31801 34.3498 5.6522C34.3498 2.98638 32.1887 0.825317 29.5229 0.825317C26.8571 0.825317 24.696 2.98638 24.696 5.6522C24.696 8.31801 26.8571 10.4791 29.5229 10.4791Z" fill="#8D8BA7"/>
<path fill-rule="evenodd" clip-rule="evenodd" d="M29.5227 22.602C32.1885 22.602 34.3496 20.441 34.3496 17.7753C34.3496 15.1096 32.1885 12.9486 29.5227 12.9486C26.8569 12.9486 24.6958 15.1096 24.6958 17.7753C24.6958 20.441 26.8569 22.602 29.5227 22.602Z" fill="#8D8BA7"/>
<path fill-rule="evenodd" clip-rule="evenodd" d="M29.5227 35.1747C32.1885 35.1747 34.3496 33.0136 34.3496 30.3478C34.3496 27.682 32.1885 25.5209 29.5227 25.5209C26.8569 25.5209 24.6958 27.682 24.6958 30.3478C24.6958 33.0136 26.8569 35.1747 29.5227 35.1747Z" fill="#8D8BA7"/>
<path fill-rule="evenodd" clip-rule="evenodd" d="M16.9505 22.602C19.6162 22.602 21.7772 20.441 21.7772 17.7753C21.7772 15.1096 19.6162 12.9486 16.9505 12.9486C14.2848 12.9486 12.1238 15.1096 12.1238 17.7753C12.1238 20.441 14.2848 22.602 16.9505 22.602Z" fill="#8D8BA7"/>
<path fill-rule="evenodd" clip-rule="evenodd" d="M16.9505 35.1747C19.6162 35.1747 21.7772 33.0136 21.7772 30.3478C21.7772 27.682 19.6162 25.5209 16.9505 25.5209C14.2848 25.5209 12.1238 27.682 12.1238 30.3478C12.1238 33.0136 14.2848 35.1747 16.9505 35.1747Z" fill="#8D8BA7"/>
<path fill-rule="evenodd" clip-rule="evenodd" d="M4.82688 35.1747C7.49269 35.1747 9.65376 33.0136 9.65376 30.3478C9.65376 27.682 7.49269 25.5209 4.82688 25.5209C2.16107 25.5209 0 27.682 0 30.3478C0 33.0136 2.16107 35.1747 4.82688 35.1747Z" fill="#8D8BA7"/>
</svg>
