<svg width="126" height="29" viewBox="0 0 126 29" fill="none" xmlns="http://www.w3.org/2000/svg">
<path d="M21.0852 28.5195L12.8359 28.367C10.1649 28.3139 7.48731 28.42 4.8688 27.8695C0.885256 27.047 0.603061 23.0143 0.30774 19.6316C-0.0991455 14.8759 0.0583587 10.034 0.826192 5.31815C1.25933 2.67169 2.96562 1.09309 5.60382 0.920639C14.5094 0.297161 23.474 0.370121 32.3598 0.661962C33.2983 0.688493 34.2433 0.834413 35.1687 1.00023C39.7363 1.80943 39.8479 6.37939 40.1432 10.2264C40.4385 14.1132 40.3138 18.0199 39.7494 21.8801C39.2966 25.0771 38.4303 27.7568 34.7749 28.0154C30.1942 28.3537 25.7184 28.6256 21.1245 28.5394C21.1245 28.5195 21.0983 28.5195 21.0852 28.5195V28.5195ZM16.2354 20.4276C19.6873 18.4245 23.0737 16.4545 26.5059 14.4647C23.0474 12.4616 19.6676 10.4917 16.2354 8.50187V20.4276Z" fill="#767494"/>
<path d="M106.311 24.8849C106.153 25.5349 106.015 26.0456 105.878 26.5895H102.649V1.41797H106.416V10.7039C106.613 10.4519 106.711 10.3457 106.796 10.233C107.44 9.33755 108.273 8.75387 109.349 8.52835C111.062 8.19008 112.526 8.95285 113.044 10.6177C113.379 11.6524 113.595 12.7601 113.622 13.8412C113.674 16.6204 113.635 19.3929 113.536 22.1721C113.497 23.0211 113.241 23.89 112.919 24.6859C111.863 27.3125 108.411 27.7105 106.698 25.4354C106.593 25.2961 106.495 25.1436 106.311 24.8849V24.8849ZM106.495 17.9602V22.5634C106.495 23.3129 106.888 23.7706 107.63 23.943C108.358 24.1155 108.949 23.8303 109.244 23.1471C109.369 22.8619 109.494 22.5634 109.5 22.2649C109.572 19.4526 109.638 16.6403 109.658 13.8213C109.658 13.2973 109.533 12.7535 109.376 12.2427C109.08 11.3208 108.266 11.0488 107.466 11.5861C106.862 11.9973 106.495 12.581 106.495 13.357V17.9602ZM96.2568 8.88652H100.201V26.6028H97.123C97.0115 25.9329 96.8999 25.2431 96.7687 24.4338C96.5586 24.7456 96.434 24.9446 96.3027 25.1436C95.2789 26.6359 93.8286 27.1467 92.1157 26.8747C90.6522 26.6359 89.7728 25.4951 89.576 23.6246C89.5169 23.0675 89.4907 22.5037 89.4907 21.9465C89.4775 17.801 89.4907 13.6423 89.4907 9.49674V8.87326H93.4808V9.59623C93.4808 13.6025 93.4676 17.602 93.4939 21.6083C93.4939 22.1787 93.5529 22.769 93.6514 23.3394C93.7629 23.9231 94.183 24.1354 94.7473 24.0956C95.6596 24.0226 96.2896 23.3394 96.2896 22.4241V9.6692C96.2568 9.41052 96.2568 9.17173 96.2568 8.88652V8.88652ZM69.1005 8.87326H73.0643V9.62276C73.0643 13.6091 73.0512 17.5888 73.0774 21.5618C73.0774 22.1323 73.1299 22.7226 73.2481 23.2797C73.399 23.9364 73.7796 24.1486 74.4293 24.0624C75.3284 23.9364 75.8731 23.3063 75.8797 22.3843V9.69573V8.89979H79.8238V26.6028H76.7591C76.6475 25.9461 76.536 25.2696 76.3916 24.4139C76.1947 24.7124 76.0831 24.8849 75.9716 25.064C74.9478 26.5829 73.5106 27.14 71.7583 26.8681C70.3539 26.6558 69.4942 25.6079 69.2317 23.89C69.1595 23.3527 69.107 22.8221 69.107 22.2848C69.0939 17.9801 69.0939 13.6555 69.0939 9.35082L69.1005 8.87326ZM67.066 18.3317C67.0529 18.9286 67.0135 19.5256 66.9807 20.1225C66.8298 21.9134 66.7576 24.4537 65.3269 25.7604C64.4147 26.5829 63.2597 26.8814 62.0653 26.9212C61.5337 26.9344 60.9956 26.9344 60.464 26.8615C57.9505 26.4768 56.7823 25.3558 56.3623 22.5634C55.8832 19.3398 55.8439 16.0632 56.4148 12.8397C57.0055 9.50337 59.0399 8.32273 62.2031 8.54162C65.1563 8.75387 66.4754 10.7105 66.8232 13.4963C67.0135 15.0948 67.1054 16.7132 67.066 18.3317V18.3317ZM63.0497 17.7214C63.0497 16.5872 63.0759 15.4464 63.0365 14.3122C63.0103 13.6555 62.925 12.9922 62.7872 12.3422C62.6297 11.5927 62.1571 11.2345 61.5665 11.2478C60.989 11.2611 60.5821 11.6192 60.3721 12.3157C60.2999 12.5744 60.2212 12.8397 60.2212 13.0984C60.2212 14.876 60.208 16.6602 60.1949 18.4378C60.1818 20.096 59.9718 21.8338 60.4902 23.419C60.6477 23.9032 61.0546 24.1685 61.5862 24.1685C62.1046 24.1685 62.4459 23.9099 62.6362 23.4456C62.7872 23.0874 62.9184 22.696 62.9184 22.3113C62.9644 20.7858 63.0497 19.2536 63.0497 17.7214ZM50.574 14.3851C50.9219 12.6672 51.25 10.9891 51.6109 9.30439C52.0638 7.16199 52.5691 5.01959 53.0154 2.87056C53.1269 2.34656 53.3369 2.22054 53.8291 2.23381C54.8857 2.2736 55.962 2.24707 57.0908 2.24707C56.7233 3.61343 56.3623 4.91346 56.0079 6.1936C54.8857 10.2131 53.7635 14.2458 52.6544 18.2786C52.5691 18.5903 52.5297 18.9286 52.5297 19.2602C52.5166 21.4623 52.5297 23.6578 52.5297 25.8599V26.5762H48.6774C48.6643 26.3773 48.6381 26.1783 48.6381 25.9793C48.6381 24.7323 48.5396 23.4787 48.6512 22.245C48.9334 19.2801 48.0015 16.5541 47.2468 13.7948C46.2492 10.1468 45.2386 6.48544 44.2411 2.83739C44.1886 2.66494 44.1689 2.47922 44.1164 2.26697H48.0474C48.8743 6.29309 49.7078 10.3192 50.574 14.3851ZM125.946 19.0082H119.305C119.377 20.3547 119.403 21.6348 119.541 22.9017C119.64 23.7838 120.119 24.1619 120.873 24.1685C121.661 24.1818 122.12 23.7838 122.304 22.9083C122.363 22.6231 122.402 22.3379 122.429 22.046C122.455 21.7874 122.468 21.5088 122.488 21.1373C123.61 21.197 124.706 21.2634 125.789 21.3098C126.419 23.2001 125.283 25.6278 123.374 26.3773C121.871 26.9742 120.329 26.9742 118.793 26.5166C117.658 26.1783 116.811 25.4487 116.43 24.3277C116.076 23.2797 115.741 22.1853 115.669 21.0909C115.472 18.3913 115.4 15.6653 115.807 12.9591C115.879 12.508 116.004 12.0769 116.142 11.6391C116.693 9.83502 117.894 8.72733 119.751 8.54162C120.762 8.44212 121.805 8.48192 122.803 8.65437C124.417 8.93959 125.277 10.1136 125.651 11.6524C125.822 12.3754 125.946 13.1183 125.973 13.8545C125.979 15.5459 125.946 17.224 125.946 19.0082ZM122.173 16.6801C122.173 15.3469 122.186 14.0933 122.16 12.833C122.16 12.5346 122.048 12.2228 121.936 11.9376C121.713 11.3805 121.247 11.2279 120.69 11.2279C120.132 11.2279 119.777 11.5131 119.64 12.0238C119.22 13.556 119.357 15.1214 119.37 16.6933C120.375 16.6801 121.287 16.6801 122.173 16.6801V16.6801Z" fill="#767494"/>
<path d="M82.8685 5.49741H78.9638V2.30038H90.619V5.47751H86.7405V26.5765H82.8751L82.8685 5.49741Z" fill="#767494"/>
</svg>
