<svg width="163" height="37" viewBox="0 0 163 37" fill="none" xmlns="http://www.w3.org/2000/svg">
<path d="M34.3058 26.6083V13.6087C34.3056 13.4246 34.257 13.2438 34.1651 13.0844C34.0731 12.925 33.9409 12.7927 33.7817 12.7007C33.6226 12.6087 33.4421 12.5603 33.2583 12.5604C33.0746 12.5604 32.8941 12.6089 32.735 12.701L19.6457 20.2751V35.2528C19.6459 35.4369 19.6944 35.6177 19.7864 35.7771C19.8784 35.9365 20.0106 36.0688 20.1697 36.1608C20.3289 36.2528 20.5094 36.3012 20.6931 36.3011C20.8768 36.3011 21.0573 36.2526 21.2164 36.1605L32.6225 29.5571C33.1357 29.2559 33.5612 28.8251 33.8566 28.3077C34.1519 27.7903 34.3068 27.2044 34.3058 26.6083Z" fill="#FFD633"/>
<path d="M30.7951 8.9756L17.5513 16.6389L4.30755 8.9756C4.14826 8.88352 4.01596 8.75103 3.92398 8.59145C3.832 8.43187 3.78357 8.25083 3.78357 8.06654C3.78357 7.88225 3.832 7.70121 3.92398 7.54164C4.01596 7.38206 4.14826 7.24957 4.30755 7.15749L15.9178 0.438654C16.4145 0.151287 16.9779 0 17.5513 0C18.1248 0 18.6882 0.151287 19.1849 0.438654L30.7951 7.15749C30.9544 7.24957 31.0867 7.38206 31.1787 7.54164C31.2707 7.70121 31.3191 7.88225 31.3191 8.06654C31.3191 8.25083 31.2707 8.43187 31.1787 8.59145C31.0867 8.75103 30.9544 8.88352 30.7951 8.9756Z" fill="#006AFF"/>
<path d="M0.797005 13.6087V26.6083C0.795714 27.2041 0.950198 27.7899 1.24507 28.3072C1.53995 28.8246 1.96492 29.2555 2.47768 29.5571L13.8863 36.1605C14.0455 36.2526 14.2259 36.3011 14.4097 36.3011C14.5934 36.3012 14.7739 36.2528 14.933 36.1608C15.0922 36.0688 15.2244 35.9365 15.3164 35.7771C15.4084 35.6177 15.4569 35.4369 15.4571 35.2528V20.2751L2.36773 12.701C2.20862 12.6089 2.02814 12.5604 1.84442 12.5604C1.6607 12.5603 1.4802 12.6087 1.32104 12.7007C1.16189 12.7927 1.02968 12.925 0.937699 13.0844C0.845716 13.2438 0.797193 13.4246 0.797005 13.6087Z" fill="#FF6666"/>
<path d="M53.4281 27.4585H46.905V8.78297H53.4281C55.3343 8.78297 56.8435 8.94183 57.9555 9.25954C59.0873 9.57725 59.9908 10.0836 60.666 10.7786C61.3411 11.4736 61.8276 12.4168 62.1254 13.6082C62.4432 14.7798 62.602 16.279 62.602 18.1058C62.602 21.3425 61.8772 23.7155 60.4277 25.2246C58.9781 26.7139 56.6449 27.4585 53.4281 27.4585ZM57.0917 14.1444C56.8137 13.7274 56.4066 13.4295 55.8705 13.2508C55.3343 13.0522 54.5202 12.9529 53.4281 12.9529H51.5218V23.1396H53.4281C54.5003 23.1396 55.3046 23.0503 55.8407 22.8715C56.3768 22.6928 56.7938 22.4049 57.0917 22.0078C57.3498 21.6305 57.5385 21.134 57.6576 20.5185C57.7768 19.8831 57.8363 19.0788 57.8363 18.1058C57.8363 17.113 57.7768 16.3088 57.6576 15.6932C57.5385 15.0578 57.3498 14.5415 57.0917 14.1444Z" fill="#16161D"/>
<path d="M67.6525 27.7564C66.1434 27.7564 65.0314 27.3791 64.3165 26.6245C63.6215 25.8699 63.274 24.6785 63.274 23.0502C63.274 21.3823 63.691 20.2107 64.525 19.5356C65.3789 18.8604 66.8384 18.5228 68.9035 18.5228C69.3801 18.5228 69.8666 18.5526 70.363 18.6122C70.8793 18.6519 71.3261 18.7115 71.7034 18.7909V17.7186C71.7034 17.2421 71.4949 16.8946 71.0779 16.6761C70.6807 16.4379 70.0652 16.3187 69.2312 16.3187C68.278 16.3187 67.4242 16.3485 66.6696 16.4081C65.9349 16.4478 65.2598 16.5272 64.6442 16.6464V12.9827C65.3789 12.804 66.2327 12.675 67.2057 12.5955C68.1787 12.4962 69.3106 12.4466 70.6013 12.4466C72.4281 12.4466 73.8082 12.8537 74.7415 13.6678C75.6946 14.4819 76.1712 15.6833 76.1712 17.2719V27.4585H72.0012L71.8523 26.2075H71.7629C71.1474 26.6841 70.4722 27.0614 69.7375 27.3394C69.0028 27.6174 68.3078 27.7564 67.6525 27.7564ZM69.4992 21.4716C68.7049 21.4716 68.1688 21.561 67.8908 21.7397C67.6128 21.8985 67.4738 22.246 67.4738 22.7822C67.4738 23.2786 67.583 23.6261 67.8015 23.8247C68.0397 24.0034 68.4468 24.0927 69.0227 24.0927C69.4595 24.0927 69.9162 24.0332 70.3928 23.914C70.8694 23.7949 71.3062 23.646 71.7034 23.4672V21.6503C71.4651 21.5908 71.1672 21.551 70.8098 21.5312C70.4524 21.4915 70.0155 21.4716 69.4992 21.4716Z" fill="#16161D"/>
<path d="M84.0713 16.2294C83.2373 16.2294 82.6714 16.2989 82.3736 16.4379C82.0956 16.557 81.9566 16.8449 81.9566 17.3016C81.9566 17.4804 82.0062 17.6293 82.1055 17.7484C82.2246 17.8477 82.3835 17.9073 82.5821 17.9271L86.1265 18.4037C87.2782 18.5626 88.0825 18.9398 88.5392 19.5356C89.0157 20.1114 89.254 21.0348 89.254 22.3056C89.254 24.2119 88.8271 25.6019 87.9732 26.4756C87.1194 27.3294 85.6301 27.7564 83.5054 27.7564C82.3338 27.7564 81.2715 27.7067 80.3184 27.6074C79.3851 27.528 78.5908 27.4089 77.9355 27.25V23.3779C78.4319 23.497 79.117 23.6062 79.9907 23.7055C80.8843 23.785 81.7878 23.8247 82.7012 23.8247C83.5153 23.8247 84.0614 23.7452 84.3394 23.5864C84.6373 23.4077 84.7862 23.08 84.7862 22.6035C84.7862 22.4446 84.7365 22.3155 84.6373 22.2163C84.538 22.0971 84.4089 22.0276 84.2501 22.0078L80.5864 21.5312C79.5142 21.3922 78.7298 21.005 78.2334 20.3696C77.7568 19.7143 77.5185 18.7512 77.5185 17.4804C77.5185 15.8124 78.0447 14.5614 79.0972 13.7274C80.1496 12.8735 81.7084 12.4466 83.7735 12.4466C84.5876 12.4466 85.3422 12.4665 86.0372 12.5062C86.7322 12.5459 87.4669 12.6253 88.2413 12.7445V16.4676C87.7449 16.3882 87.1293 16.3286 86.3946 16.2889C85.6599 16.2492 84.8855 16.2294 84.0713 16.2294Z" fill="#16161D"/>
<path d="M95.075 27.4585H90.6072V7.65112H95.075V13.7869C95.8097 13.3699 96.5643 13.0423 97.3387 12.804C98.133 12.5657 98.8876 12.4466 99.6024 12.4466C101.27 12.4466 102.511 12.8437 103.326 13.638C104.16 14.4323 104.577 15.6436 104.577 17.2719V27.4585H100.109V17.8676C100.109 17.3711 99.9598 17.0137 99.662 16.7953C99.3641 16.5769 98.8876 16.4676 98.2323 16.4676C97.7358 16.4676 97.2096 16.5173 96.6536 16.6166C96.0976 16.696 95.5714 16.8052 95.075 16.9442V27.4585Z" fill="#16161D"/>
<path d="M117.406 22.9609V26.6543C116.93 26.9522 116.155 27.2103 115.083 27.4287C114.011 27.6472 112.909 27.7564 111.777 27.7564C109.632 27.7564 108.123 27.1904 107.249 26.0586C106.396 24.9069 105.969 22.9212 105.969 20.1015C105.969 17.2818 106.525 15.306 107.637 14.1742C108.749 13.0224 110.695 12.4466 113.475 12.4466C114.15 12.4466 114.755 12.4665 115.291 12.5062C115.828 12.526 116.403 12.5757 117.019 12.6551V16.6166C116.046 16.5371 115.341 16.4974 114.904 16.4974C114.467 16.4776 113.991 16.4676 113.475 16.4676C112.104 16.4676 111.251 16.6662 110.913 17.0634C110.595 17.4406 110.436 18.4533 110.436 20.1015C110.436 21.5908 110.566 22.5439 110.824 22.9609C111.102 23.3779 111.727 23.5864 112.7 23.5864C113.494 23.5864 114.318 23.5268 115.172 23.4077C116.046 23.2885 116.791 23.1396 117.406 22.9609Z" fill="#16161D"/>
<path d="M123.563 27.7564C121.895 27.7564 120.644 27.3493 119.81 26.5352C118.996 25.7012 118.589 24.4502 118.589 22.7822V12.7445H123.057V22.1865C123.057 22.6829 123.206 23.0403 123.504 23.2587C123.802 23.4772 124.278 23.5864 124.933 23.5864C125.311 23.5864 125.708 23.5566 126.125 23.497C126.562 23.4375 126.999 23.3481 127.435 23.229V12.7445H131.903V27.4585H127.733L127.614 26.6543H127.555C126.86 26.9919 126.155 27.2599 125.44 27.4585C124.745 27.6571 124.119 27.7564 123.563 27.7564Z" fill="#16161D"/>
<path d="M142.574 12.4466C144.54 12.4466 145.93 13.0224 146.744 14.1742C147.558 15.306 147.965 17.2421 147.965 19.9823C147.965 22.7028 147.419 24.6785 146.327 25.9097C145.235 27.1408 143.467 27.7564 141.025 27.7564C139.615 27.7564 138.305 27.6869 137.093 27.5479C135.882 27.4089 134.81 27.2004 133.876 26.9224V7.65112H138.344V13.5189C139.019 13.1813 139.714 12.9232 140.429 12.7445C141.164 12.5459 141.879 12.4466 142.574 12.4466ZM143.497 19.9823C143.497 18.5328 143.348 17.5896 143.05 17.1527C142.753 16.696 142.058 16.4676 140.965 16.4676C140.509 16.4676 140.052 16.5074 139.595 16.5868C139.158 16.6662 138.741 16.7754 138.344 16.9144V23.4375C138.642 23.497 138.98 23.5467 139.357 23.5864C139.734 23.6062 140.181 23.6162 140.697 23.6162C141.889 23.6162 142.653 23.3977 142.991 22.9609C143.328 22.5042 143.497 21.5113 143.497 19.9823Z" fill="#16161D"/>
<path d="M161.578 23.1098V26.6543C161.101 26.9522 160.297 27.2103 159.165 27.4287C158.033 27.6472 156.842 27.7564 155.591 27.7564C153.208 27.7564 151.49 27.1607 150.438 25.9692C149.385 24.758 148.859 22.802 148.859 20.1015C148.859 17.4605 149.415 15.5244 150.527 14.2933C151.639 13.0622 153.396 12.4466 155.799 12.4466C158.142 12.4466 159.79 12.9132 160.744 13.8465C161.717 14.7599 162.203 16.3882 162.203 18.7313C162.203 19.3668 162.193 19.8731 162.173 20.2504C162.153 20.6277 162.114 21.0645 162.054 21.561H153.357C153.377 22.3751 153.595 22.941 154.012 23.2587C154.429 23.5765 155.193 23.7353 156.305 23.7353C157.259 23.7353 158.232 23.6757 159.224 23.5566C160.217 23.4176 161.002 23.2687 161.578 23.1098ZM155.799 16.2591C154.846 16.2591 154.201 16.4279 153.863 16.7655C153.525 17.0832 153.357 17.7186 153.357 18.6718H158.152V18.0165C158.132 17.3215 157.964 16.8549 157.646 16.6166C157.348 16.3783 156.732 16.2591 155.799 16.2591Z" fill="#16161D"/>
</svg>
