<svg width="143" height="35" viewBox="0 0 143 35" fill="none" xmlns="http://www.w3.org/2000/svg">
<path d="M16.1376 0.459596C14.311 0.666485 11.5712 1.52587 10.0123 2.38525C5.82374 4.66103 2.9894 8.20997 1.57223 12.9366C1.2888 13.8596 0.958123 16.3741 0.973869 17.5518C0.973869 18.5862 1.2888 21.1167 1.47775 21.7214C1.57223 22.0079 1.77693 22.6922 1.95014 23.2174C2.23358 24.1086 3.60351 26.9095 3.8397 27.1005C3.88694 27.1483 4.13888 27.4666 4.37508 27.8326C4.95769 28.7079 6.48509 30.2675 7.63457 31.1587C8.51637 31.843 11.0043 33.2913 11.3192 33.3072C11.3979 33.3072 11.4137 32.7024 11.3665 31.9067C11.2562 30.1402 11.5869 27.7371 12.2955 25.2863C12.4215 24.8725 12.5159 24.3314 12.5159 24.0927C12.5159 23.854 12.5789 23.5993 12.6577 23.5197C12.7364 23.4243 12.8781 22.9627 12.9568 22.4853C13.0513 22.0079 13.2088 21.2758 13.319 20.862C13.4765 20.2414 13.4607 20.0026 13.2403 19.3342C12.9253 18.3157 12.9096 16.6606 13.2245 15.8649C13.9646 13.971 14.7834 13.2549 16.1691 13.2549C17.8382 13.2549 18.6413 14.528 18.3263 16.6606C18.1846 17.6314 17.791 19.1592 17.539 19.6366C17.476 19.7798 17.3658 20.1777 17.3186 20.5119C17.2556 20.862 17.1296 21.3554 17.0509 21.6259C16.8304 22.2466 17.2556 23.4561 17.8225 23.9176C18.3578 24.3473 19.4758 24.4746 20.4993 24.2359C21.2237 24.0768 21.5228 23.8858 22.2787 23.1537C23.1762 22.2625 23.8533 21.2281 23.8533 20.7347C23.8533 20.5915 23.932 20.4005 24.0265 20.305C24.4674 19.8594 24.7036 16.39 24.3729 14.9259C24.0108 13.3185 22.8928 11.743 21.4441 10.82C19.9954 9.881 17.0036 9.61045 15.1613 10.247C13.8701 10.6926 12.7206 11.4406 11.9806 12.3159C11.3192 13.0957 10.6264 14.3689 10.6264 14.8145C10.6264 14.9736 10.5476 15.1805 10.4532 15.276C10.3587 15.3715 10.2485 15.9763 10.2012 16.6288C10.1225 17.5995 10.1855 18.0451 10.4689 19C10.6579 19.6525 11.0043 20.4164 11.209 20.7029C11.6341 21.2758 11.6341 21.4986 11.2405 23.0264C11.1303 23.4402 10.9413 23.8221 10.8311 23.8699C9.83906 24.2518 7.82353 21.8487 7.14643 19.4615C6.89449 18.5544 6.87875 15.3238 7.13069 14.3689C7.24091 13.971 7.42987 13.4299 7.55584 13.1435C7.68181 12.8729 7.79203 12.6024 7.79203 12.5387C7.79203 12.4751 8.10696 11.934 8.50062 11.3451C10.5476 8.22589 13.8701 6.57078 18.0744 6.57078C19.0349 6.57078 20.0269 6.63443 20.2946 6.71401C22.4676 7.39833 23.0502 7.62113 23.9005 8.1304C25.5539 9.13301 26.7506 10.5017 27.9473 12.7934C28.0261 12.9366 28.1363 13.3185 28.1835 13.6368C28.2465 13.9551 28.3568 14.2575 28.4355 14.3052C28.5142 14.353 28.5772 15.3874 28.5772 16.6128C28.5772 18.825 28.4197 19.7162 27.7584 21.5304C27.0183 23.5197 25.113 25.716 23.3809 26.5753C22.3889 27.0528 20.5308 27.578 19.7907 27.578C18.7987 27.578 16.8462 26.7504 16.3108 26.082C16.0589 25.7796 15.8227 25.891 15.8227 26.3207C15.8227 26.4799 15.7597 26.7504 15.6652 26.9095C15.5865 27.0528 15.4448 27.4984 15.366 27.8962C14.9094 29.997 14.2638 31.6998 13.2718 33.2913C12.9726 33.7846 13.2245 34.0711 14.0433 34.1825C14.4527 34.2461 15.0039 34.3575 15.2558 34.4371C15.8857 34.644 19.3026 34.6122 20.4521 34.4053C21.4913 34.2143 23.1762 33.7369 23.932 33.4186C28.6874 31.4452 32.2933 27.4347 33.8522 22.3262C34.6868 19.6048 34.734 16.4378 33.9782 13.2549C33.7263 12.2204 33.6475 11.9817 32.9704 10.3903C31.9942 8.06674 29.7897 5.34536 27.5537 3.67433C25.6326 2.24202 23.7431 1.41447 20.7985 0.698314C19.9797 0.50734 17.0666 0.348195 16.1376 0.459596ZM58.1331 6.20474C57.519 6.30023 56.5427 7.31876 56.2908 8.11448C56.0231 8.98978 56.2908 9.92874 57.0466 10.6608C58.7157 12.3 61.613 10.7563 61.2509 8.40095C61.0304 6.90498 59.6762 5.95011 58.1331 6.20474ZM40.9696 7.1437C40.8279 7.30284 40.8279 26.4958 40.9853 26.7186C41.0641 26.8459 41.7411 26.8936 43.0638 26.8777L45.0321 26.8618L45.1109 23.6311C45.1738 21.0053 45.2368 20.3687 45.4258 20.2573C45.5518 20.1777 46.6225 20.0981 47.8035 20.0981C50.3859 20.0981 51.4724 19.9072 52.6534 19.2706C54.1965 18.4271 55.094 17.2176 55.5822 15.2919C55.8814 14.0824 55.8814 13.2071 55.5664 11.9658C55.283 10.8518 55.157 10.5812 54.4799 9.67411C53.6454 8.54418 52.7951 7.92351 51.4094 7.43016C50.6378 7.17553 49.9922 7.12778 45.8194 7.08004C43.2213 7.04821 41.0326 7.08004 40.9696 7.1437ZM49.6143 11.1064C50.6693 11.4406 51.1889 11.9181 51.4251 12.7774C51.7243 13.9074 51.5039 14.9577 50.8425 15.5943C50.1182 16.2786 49.4726 16.4378 47.3626 16.4378C45.9769 16.4378 45.5518 16.39 45.3628 16.1831C45.1581 15.9922 45.1109 15.5307 45.1109 13.7164C45.1109 10.8518 45.0951 10.8677 47.2839 10.8677C48.2286 10.8677 49.1419 10.9632 49.6143 11.1064ZM77.2334 10.1675C77.2334 11.2656 77.1547 12.3 77.0759 12.4751C76.9657 12.682 76.7453 12.7774 76.3673 12.7774C76.0839 12.7774 75.8162 12.8411 75.7847 12.9366C75.769 13.0162 75.769 13.5732 75.8162 14.162C75.8949 15.2124 75.9107 15.2283 76.3831 15.3397C76.6508 15.3874 76.95 15.4829 77.0444 15.5466C77.1862 15.6261 77.2334 16.8834 77.2334 20.0663C77.2334 24.3473 77.2491 24.5064 77.5956 25.143C78.3199 26.4958 79.4536 26.9732 81.7526 26.9095L83.2957 26.8618L83.343 25.3181L83.3902 23.7585H82.9966C82.3982 23.7585 81.5164 23.281 81.4219 22.8991C81.3747 22.7081 81.3274 21.0212 81.3274 19.1273C81.3274 16.5174 81.3747 15.6421 81.5321 15.5147C81.6424 15.4193 82.0833 15.3238 82.5084 15.2919L83.2957 15.2442V12.857L82.4297 12.8093C81.9573 12.7774 81.5164 12.666 81.4534 12.5706C81.3904 12.4591 81.3274 11.4247 81.3274 10.2629V8.16223H77.2334V10.1675ZM135.763 8.25771C135.7 8.32137 135.652 9.32399 135.652 10.4857C135.652 12.7456 135.637 12.7774 134.771 12.7774C134.377 12.7774 134.377 12.7934 134.424 14.0029C134.471 15.2124 134.487 15.2442 134.896 15.2919C135.117 15.3238 135.385 15.4352 135.463 15.5307C135.558 15.6421 135.652 17.5677 135.7 20.0185C135.747 22.3739 135.826 24.5224 135.889 24.777C136.077 25.4772 137.054 26.3684 137.983 26.6708C139.022 27.0209 141.667 27.0528 141.935 26.7186C142.061 26.5753 142.108 26.0024 142.077 25.1749L142.03 23.838L141.478 23.7426C140.88 23.6471 140.203 23.3288 140.03 23.0582C139.967 22.9627 139.904 21.2281 139.904 19.2069C139.904 15.0532 139.809 15.3238 141.179 15.3238C142.077 15.3238 142.156 15.1646 142.077 13.7164L142.03 12.857L141.006 12.7774L139.983 12.6979L139.904 10.4698L139.825 8.2418L137.841 8.19406C136.755 8.17814 135.826 8.20997 135.763 8.25771ZM69.439 12.3955C68.6674 12.6024 67.7698 13.1276 67.1715 13.7482C66.4471 14.5121 66.2582 14.4644 66.1795 13.4936L66.1322 12.857H62.1956V26.8618L64.1797 26.8936C66.1322 26.9414 66.1795 26.9255 66.2739 26.5753C66.3212 26.3844 66.3684 24.3632 66.3684 22.0715C66.3684 17.5359 66.3842 17.4086 67.3132 16.5174C67.7226 16.1195 67.9431 16.0399 68.8248 15.9922L69.8484 15.9285L70.4625 16.581C71.1868 17.3449 71.1081 16.6128 71.1711 23.2015C71.1868 24.9521 71.2025 26.4958 71.2183 26.6549C71.2498 26.8777 71.5017 26.9095 73.2653 26.8777L75.2651 26.8618V15.6898L74.8085 14.7827C74.0211 13.2071 72.8087 12.4592 70.9506 12.3637C70.2893 12.3477 69.6122 12.3477 69.439 12.3955ZM89.1219 12.3955C87.4213 12.857 86.6025 13.3185 85.5475 14.3689C84.1303 15.8171 83.4847 17.5041 83.4847 19.7798C83.5004 23.7744 85.9726 26.7345 89.6258 27.0846C92.7435 27.387 95.1527 26.4639 96.6959 24.3791C96.9163 24.0768 97.3887 23.106 97.3887 22.9309C97.3887 22.8673 96.4754 22.8036 95.3732 22.8036H93.3576L92.8853 23.2969C92.3341 23.8699 91.5626 24.2359 90.854 24.2359C90.1454 24.2359 89.0589 23.7266 88.555 23.1855C88.1771 22.7558 87.626 21.5145 87.626 21.0848C87.626 20.9416 88.7755 20.8938 92.4758 20.8938C95.137 20.8938 97.3887 20.8302 97.4989 20.7665C97.7351 20.6074 97.5147 18.077 97.1683 17.1539C96.4597 15.2283 95.1212 13.605 93.7671 13.0321C93.3734 12.8729 92.9167 12.666 92.7593 12.5865C92.4286 12.4114 89.6258 12.2682 89.1219 12.3955ZM92.1924 15.8808C92.8065 16.3105 93.3419 17.329 93.2632 17.9019C93.2159 18.268 93.1844 18.268 90.5233 18.3157C87.4528 18.3634 87.437 18.3475 87.9252 17.2017C88.2716 16.406 88.9644 15.6898 89.61 15.4829C90.3501 15.2442 91.5468 15.4352 92.1924 15.8808ZM112.426 12.3955C110.6 12.8888 109.324 13.7005 108.332 14.9577C107.939 15.467 107.624 15.9444 107.624 16.0399C107.624 16.1195 107.514 16.406 107.372 16.6765C107.23 16.9311 107.025 17.7269 106.915 18.443C106.364 21.8487 107.876 25.0316 110.71 26.4639L111.797 27.0209H114.08C116.442 27.0209 116.646 26.9732 118.095 26.1934C119.15 25.6205 120.882 23.3924 120.615 22.9468C120.552 22.8673 119.654 22.8036 118.599 22.8036H116.662L116.269 23.2651C114.694 25.0635 111.749 24.1404 111.12 21.6418C111.025 21.3076 111.025 21.0212 111.104 20.9575C111.182 20.9098 113.434 20.8779 116.127 20.8938C119.969 20.8938 121.008 20.862 121.024 20.7029C121.166 18.7136 120.221 15.7694 119.04 14.4962C118.379 13.7801 117.229 12.9843 116.662 12.8411C116.41 12.7774 116.127 12.666 116.017 12.5865C115.796 12.4114 112.915 12.2682 112.426 12.3955ZM114.883 15.4988C115.591 15.7535 116.41 16.6447 116.536 17.329C116.725 18.3634 116.741 18.3634 113.812 18.3157C111.183 18.268 111.167 18.268 111.12 17.9019C111.057 17.4563 111.608 16.3582 112.08 15.9444C112.757 15.3715 113.938 15.1805 114.883 15.4988ZM126.126 12.3955C122.898 13.1753 121.733 14.3371 121.717 16.7561C121.717 19.3661 123.008 20.4642 126.834 21.1485C129.464 21.61 130.22 22.0238 130.188 23.0264C130.173 23.7426 129.684 24.2041 128.708 24.411C127.48 24.6815 126.519 24.3791 125.748 23.5038L125.134 22.8036H123.228C121.685 22.8036 121.323 22.8513 121.323 23.0264C121.323 23.4879 121.953 24.6974 122.473 25.3022C122.961 25.8274 123.339 26.082 124.819 26.7981C124.961 26.8777 125.732 27.005 126.504 27.1005C127.937 27.2756 130.425 27.1164 131.054 26.7981C131.196 26.7345 131.606 26.5276 131.952 26.3684C132.849 25.9388 133.7 24.968 134.015 24.0449C134.361 22.9946 134.267 21.5304 133.779 20.5119C133.196 19.3183 131.653 18.4589 129.354 18.0451C126.393 17.52 126.346 17.5041 125.874 17.0425C125.307 16.4537 125.307 16.2468 125.874 15.6102C126.33 15.101 126.362 15.085 127.622 15.085C128.881 15.085 128.913 15.101 129.37 15.6102C129.621 15.8967 129.826 16.2309 129.826 16.3582C129.826 16.5492 130.157 16.5969 131.794 16.5969C133.967 16.5969 133.904 16.6447 133.527 15.5147C132.834 13.5095 131.054 12.491 128.094 12.3796C127.181 12.3477 126.299 12.3477 126.126 12.3955ZM105.183 12.7297C104.49 12.9684 103.53 13.7641 103.231 14.3371C102.931 14.91 102.664 14.6713 102.585 13.7164L102.506 12.857H98.5697L98.5224 19.5411C98.5067 23.2174 98.5224 26.3844 98.5697 26.5913C98.6484 26.9414 98.6957 26.9414 100.585 26.9095C101.672 26.8936 102.554 26.7981 102.616 26.7027C102.679 26.6231 102.742 24.9361 102.742 22.9627C102.742 19.8435 102.774 19.2865 103.042 18.5862C103.593 17.138 104.774 16.2786 106.254 16.2786C106.663 16.2786 106.837 16.1991 106.884 15.9922C106.994 15.5307 107.01 13.3822 106.915 12.9048C106.821 12.5228 106.742 12.4591 106.317 12.4751C106.033 12.491 105.53 12.6024 105.183 12.7297ZM56.6844 12.9684C56.6372 13.0798 56.6214 16.215 56.6372 19.939L56.6844 26.7027L58.5582 26.7822C59.692 26.83 60.5108 26.7981 60.6368 26.7027C60.81 26.5753 60.8572 25.2226 60.8572 19.8117C60.8729 16.1195 60.8257 13.0162 60.7785 12.9366C60.621 12.6979 56.7632 12.7297 56.6844 12.9684Z" fill="#767494"/>
</svg>
