<svg width="21" height="21" viewBox="0 0 21 21" fill="none" xmlns="http://www.w3.org/2000/svg">
<path d="M18.9664 11.1918C18.8462 11.0713 18.6953 10.9858 18.5302 10.9445C18.365 10.9033 18.1917 10.9077 18.0289 10.9575C16.8915 11.3008 15.6823 11.3292 14.53 11.0397C13.3777 10.7501 12.3255 10.1534 11.4856 9.31313C10.6456 8.47285 10.0493 7.42047 9.76019 6.26808C9.47107 5.11569 9.49995 3.90645 9.84375 2.76917C9.89391 2.60629 9.89871 2.43281 9.85764 2.26739C9.81658 2.10198 9.73119 1.95089 9.61068 1.83037C9.49016 1.70986 9.33907 1.62447 9.17366 1.58341C9.00824 1.54234 8.83476 1.54714 8.67188 1.5973C6.96125 2.12308 5.46007 3.17508 4.38203 4.60355C3.4393 5.85659 2.8644 7.34755 2.72184 8.90913C2.57928 10.4707 2.87471 12.0411 3.57497 13.4442C4.27523 14.8472 5.35261 16.0273 6.68623 16.8521C8.01984 17.677 9.55693 18.1138 11.125 18.1137C12.9557 18.1191 14.7377 17.5238 16.1977 16.4192C17.6254 15.3401 18.6763 13.8381 19.2008 12.127C19.2501 11.9645 19.2543 11.7917 19.213 11.627C19.1717 11.4623 19.0865 11.3119 18.9664 11.1918ZM15.0695 14.9215C13.8059 15.8728 12.2411 16.3357 10.6633 16.225C9.08543 16.1143 7.60066 15.4374 6.48221 14.319C5.36377 13.2005 4.68691 11.7158 4.5762 10.1379C4.46549 8.56009 4.92838 6.99535 5.87969 5.73168C6.38026 5.06954 7.00063 4.5072 7.70859 4.07386C7.69453 4.27386 7.6875 4.47464 7.6875 4.67621C7.68998 6.91321 8.57973 9.05788 10.1615 10.6397C11.7433 12.2215 13.888 13.1112 16.125 13.1137C16.3266 13.1137 16.5273 13.1067 16.7273 13.0926C16.2942 13.8007 15.7318 14.4211 15.0695 14.9215Z" fill="#A8A8BD"/>
</svg>
