<svg width="21" height="20" viewBox="0 0 21 20" fill="none" xmlns="http://www.w3.org/2000/svg">
<path d="M18.9664 10.8907C18.8461 10.7702 18.6953 10.6847 18.5302 10.6434C18.365 10.6021 18.1917 10.6066 18.0289 10.6563C16.8915 10.9997 15.6822 11.0281 14.53 10.7385C13.3777 10.449 12.3255 9.85226 11.4856 9.01198C10.6456 8.1717 10.0493 7.11932 9.76019 5.96693C9.47106 4.81454 9.49994 3.6053 9.84374 2.46803C9.8939 2.30514 9.8987 2.13166 9.85763 1.96625C9.81657 1.80083 9.73119 1.64974 9.61067 1.52923C9.49015 1.40871 9.33906 1.32333 9.17365 1.28226C9.00824 1.24119 8.83476 1.246 8.67187 1.29615C6.96124 1.82193 5.46006 2.87393 4.38202 4.3024C3.43929 5.55544 2.86439 7.0464 2.72183 8.60799C2.57928 10.1696 2.8747 11.74 3.57496 13.143C4.27522 14.546 5.3526 15.7262 6.68622 16.551C8.01984 17.3758 9.55692 17.8127 11.125 17.8126C12.9557 17.8179 14.7377 17.2227 16.1976 16.118C17.6254 15.0389 18.6763 13.5369 19.2008 11.8258C19.2501 11.6634 19.2543 11.4905 19.213 11.3258C19.1717 11.1611 19.0865 11.0107 18.9664 10.8907ZM15.0695 14.6204C13.8059 15.5717 12.2411 16.0346 10.6633 15.9239C9.08543 15.8132 7.60065 15.1363 6.48221 14.0178C5.36376 12.8994 4.6869 11.4146 4.57619 9.83678C4.46548 8.25894 4.92837 6.6942 5.87968 5.43053C6.38025 4.76839 7.00062 4.20606 7.70859 3.77271C7.69452 3.97271 7.68749 4.1735 7.68749 4.37506C7.68997 6.61206 8.57972 8.75673 10.1615 10.3385C11.7433 11.9203 13.888 12.8101 16.125 12.8126C16.3266 12.8126 16.5273 12.8055 16.7273 12.7915C16.2942 13.4996 15.7318 14.12 15.0695 14.6204Z" fill="#A8A8BD"/>
</svg>
