<svg width="32" height="30" viewBox="0 0 32 30" fill="none" xmlns="http://www.w3.org/2000/svg">
<path d="M29.5325 2.65222C28.7506 1.81139 27.8222 1.14438 26.8004 0.689305C25.7786 0.234229 24.6834 0 23.5774 0C22.4714 0 21.3762 0.234229 20.3544 0.689305C19.3326 1.14438 18.4042 1.81139 17.6223 2.65222L15.9996 4.39642L14.3769 2.65222C12.7975 0.954595 10.6554 0.000879937 8.42177 0.000879955C6.18818 0.000879973 4.04607 0.954595 2.46668 2.65222C0.887291 4.34984 1.66416e-08 6.65231 0 9.05311C-1.66416e-08 11.4539 0.887291 13.7564 2.46668 15.454L4.0894 17.1982L15.9996 30L27.9098 17.1982L29.5325 15.454C30.3148 14.6136 30.9353 13.6157 31.3587 12.5174C31.7821 11.4191 32 10.2419 32 9.05311C32 7.86428 31.7821 6.68709 31.3587 5.5888C30.9353 4.49052 30.3148 3.49265 29.5325 2.65222V2.65222Z" fill="#BCBACD"/>
</svg>
