<svg width="20" height="20" viewBox="0 0 20 20" fill="none" xmlns="http://www.w3.org/2000/svg">
<path d="M7.8125 16.8751C7.8125 17.1841 7.72086 17.4862 7.54917 17.7431C7.37748 18.0001 7.13345 18.2004 6.84794 18.3186C6.56243 18.4369 6.24827 18.4678 5.94517 18.4075C5.64208 18.3472 5.36366 18.1984 5.14515 17.9799C4.92663 17.7614 4.77781 17.483 4.71752 17.1799C4.65723 16.8768 4.68818 16.5626 4.80644 16.2771C4.9247 15.9916 5.12497 15.7476 5.38192 15.5759C5.63887 15.4042 5.94097 15.3126 6.25 15.3126C6.6644 15.3126 7.06183 15.4772 7.35485 15.7702C7.64788 16.0632 7.8125 16.4607 7.8125 16.8751ZM14.375 15.3126C14.066 15.3126 13.7639 15.4042 13.5069 15.5759C13.25 15.7476 13.0497 15.9916 12.9314 16.2771C12.8132 16.5626 12.7822 16.8768 12.8425 17.1799C12.9028 17.483 13.0516 17.7614 13.2701 17.9799C13.4887 18.1984 13.7671 18.3472 14.0702 18.4075C14.3733 18.4678 14.6874 18.4369 14.9729 18.3186C15.2585 18.2004 15.5025 18.0001 15.6742 17.7431C15.8459 17.4862 15.9375 17.1841 15.9375 16.8751C15.9375 16.4607 15.7729 16.0632 15.4799 15.7702C15.1868 15.4772 14.7894 15.3126 14.375 15.3126ZM18.3961 5.90084L16.2641 12.8305C16.1279 13.2787 15.8509 13.671 15.4742 13.9492C15.0974 14.2275 14.641 14.3768 14.1727 14.3751H6.47891C6.00383 14.3735 5.54205 14.2181 5.16275 13.932C4.78345 13.646 4.50707 13.2447 4.375 12.7883L1.70391 3.43756H0.9375C0.688859 3.43756 0.450403 3.33879 0.274587 3.16297C0.098772 2.98716 0 2.7487 0 2.50006C0 2.25142 0.098772 2.01296 0.274587 1.83715C0.450403 1.66133 0.688859 1.56256 0.9375 1.56256H1.93906C2.27839 1.56361 2.60824 1.67466 2.87911 1.87904C3.14998 2.08343 3.34728 2.37014 3.44141 2.69615L4.01094 4.68756H17.5C17.6467 4.68755 17.7914 4.72197 17.9224 4.78807C18.0534 4.85416 18.167 4.95007 18.2542 5.06809C18.3414 5.18611 18.3996 5.32294 18.4243 5.46758C18.4489 5.61221 18.4393 5.76061 18.3961 5.90084ZM16.2305 6.56256H4.54609L6.17812 12.2735C6.19681 12.3388 6.23628 12.3963 6.29056 12.4372C6.34483 12.4781 6.41096 12.5001 6.47891 12.5001H14.1727C14.2395 12.5002 14.3047 12.4789 14.3586 12.4392C14.4124 12.3995 14.4521 12.3437 14.4719 12.2797L16.2305 6.56256Z" fill="#A8A8BD"/>
</svg>
