<svg width="20" height="21" viewBox="0 0 20 21" fill="none" xmlns="http://www.w3.org/2000/svg">
<path d="M7.8125 17.1762C7.8125 17.4852 7.72086 17.7873 7.54917 18.0443C7.37748 18.3012 7.13345 18.5015 6.84794 18.6198C6.56243 18.738 6.24827 18.769 5.94517 18.7087C5.64208 18.6484 5.36366 18.4996 5.14515 18.2811C4.92663 18.0625 4.77781 17.7841 4.71752 17.481C4.65723 17.1779 4.68818 16.8638 4.80644 16.5783C4.9247 16.2928 5.12497 16.0487 5.38192 15.877C5.63887 15.7053 5.94097 15.6137 6.25 15.6137C6.6644 15.6137 7.06183 15.7783 7.35485 16.0714C7.64788 16.3644 7.8125 16.7618 7.8125 17.1762ZM14.375 15.6137C14.066 15.6137 13.7639 15.7053 13.5069 15.877C13.25 16.0487 13.0497 16.2928 12.9314 16.5783C12.8132 16.8638 12.7822 17.1779 12.8425 17.481C12.9028 17.7841 13.0516 18.0625 13.2701 18.2811C13.4887 18.4996 13.7671 18.6484 14.0702 18.7087C14.3733 18.769 14.6874 18.738 14.9729 18.6198C15.2585 18.5015 15.5025 18.3012 15.6742 18.0443C15.8459 17.7873 15.9375 17.4852 15.9375 17.1762C15.9375 16.7618 15.7729 16.3644 15.4799 16.0714C15.1868 15.7783 14.7894 15.6137 14.375 15.6137ZM18.3961 6.20199L16.2641 13.1317C16.1279 13.5798 15.8509 13.9721 15.4742 14.2504C15.0974 14.5286 14.641 14.6779 14.1727 14.6762H6.47891C6.00383 14.6747 5.54205 14.5192 5.16275 14.2332C4.78345 13.9471 4.50707 13.5458 4.375 13.0895L1.70391 3.73871H0.9375C0.688859 3.73871 0.450403 3.63994 0.274587 3.46412C0.098772 3.28831 0 3.04985 0 2.80121C0 2.55257 0.098772 2.31411 0.274587 2.1383C0.450403 1.96248 0.688859 1.86371 0.9375 1.86371H1.93906C2.27839 1.86476 2.60824 1.9758 2.87911 2.18019C3.14998 2.38458 3.34728 2.67129 3.44141 2.9973L4.01094 4.98871H17.5C17.6467 4.9887 17.7914 5.02312 17.9224 5.08921C18.0534 5.15531 18.167 5.25122 18.2542 5.36924C18.3414 5.48726 18.3996 5.62409 18.4243 5.76873C18.4489 5.91336 18.4393 6.06176 18.3961 6.20199ZM16.2305 6.86371H4.54609L6.17812 12.5746C6.19681 12.64 6.23628 12.6974 6.29056 12.7383C6.34483 12.7792 6.41096 12.8013 6.47891 12.8012H14.1727C14.2395 12.8013 14.3047 12.78 14.3586 12.7404C14.4124 12.7007 14.4521 12.6448 14.4719 12.5809L16.2305 6.86371Z" fill="#A8A8BD"/>
</svg>
