<svg width="20" height="20" viewBox="0 0 20 20" fill="none" xmlns="http://www.w3.org/2000/svg">
<path d="M10.9375 16.875C10.9375 17.1236 11.0363 17.3621 11.2121 17.5379C11.3879 17.7137 11.6264 17.8125 11.875 17.8125H16.25C16.6644 17.8125 17.0618 17.6479 17.3549 17.3549C17.6479 17.0618 17.8125 16.6644 17.8125 16.25V3.75C17.8125 3.3356 17.6479 2.93817 17.3549 2.64515C17.0618 2.35212 16.6644 2.1875 16.25 2.1875H11.875C11.6264 2.1875 11.3879 2.28627 11.2121 2.46209C11.0363 2.6379 10.9375 2.87636 10.9375 3.125C10.9375 3.37364 11.0363 3.6121 11.2121 3.78791C11.3879 3.96373 11.6264 4.0625 11.875 4.0625H15.9375V15.9375H11.875C11.6264 15.9375 11.3879 16.0363 11.2121 16.2121C11.0363 16.3879 10.9375 16.6264 10.9375 16.875ZM2.46172 9.33672L5.58672 6.21172C5.76284 6.0356 6.00171 5.93665 6.25078 5.93665C6.49985 5.93665 6.73872 6.0356 6.91484 6.21172C7.09096 6.38784 7.18991 6.62671 7.18991 6.87578C7.18991 7.12485 7.09096 7.36372 6.91484 7.53984L5.39063 9.0625H11.875C12.1236 9.0625 12.3621 9.16127 12.5379 9.33709C12.7137 9.5129 12.8125 9.75136 12.8125 10C12.8125 10.2486 12.7137 10.4871 12.5379 10.6629C12.3621 10.8387 12.1236 10.9375 11.875 10.9375H5.39063L6.91563 12.4617C7.09175 12.6378 7.19069 12.8767 7.19069 13.1258C7.19069 13.3749 7.09175 13.6137 6.91563 13.7898C6.73951 13.966 6.50064 14.0649 6.25156 14.0649C6.00249 14.0649 5.76362 13.966 5.5875 13.7898L2.4625 10.6648C2.37505 10.5778 2.30564 10.4743 2.25826 10.3604C2.21087 10.2465 2.18644 10.1243 2.18637 10.0009C2.1863 9.87755 2.21058 9.75537 2.25783 9.64138C2.30509 9.5274 2.37437 9.42387 2.46172 9.33672Z" fill="#A8A8BD"/>
</svg>
