<svg width="80" height="72" viewBox="0 0 80 72" fill="none" xmlns="http://www.w3.org/2000/svg">
<path d="M40.242 71.3631C28.5229 71.3631 16.8038 71.3631 5.08474 71.3631C4.51227 71.3631 3.9324 71.3631 3.35747 71.3038C0.423584 71.0299 -0.755893 69.0535 0.495142 66.3811C1.58085 64.074 2.76526 61.8261 3.91513 59.5436C9.34369 48.7967 14.7722 38.0515 20.2008 27.3079C20.3686 26.9797 20.5438 26.6515 20.7387 26.3381C22.1057 24.147 24.3265 23.8385 26.076 25.7287C27.3097 27.0513 28.3535 28.5367 29.454 29.9703C35.0471 37.2791 40.6401 44.5912 46.2332 51.9066C48.676 55.0897 51.753 55.2625 54.6228 52.4001C56.0465 50.9788 57.4382 49.5205 58.8792 48.1116C61.4775 45.57 64.4262 45.723 66.5483 48.6865C70.8073 54.6332 74.9601 60.6589 79.1327 66.6649C79.4588 67.1361 79.7086 67.6557 79.8729 68.2046C80.2776 69.584 79.7051 70.6944 78.3061 71.062C77.4288 71.272 76.5282 71.3691 75.6263 71.3507C63.8381 71.3705 52.0434 71.3746 40.242 71.3631Z" fill="#D4D2E3"/>
<path d="M66.5236 12.4756C66.5206 14.7695 65.8366 17.0108 64.5582 18.9154C63.2799 20.82 61.4648 22.3021 59.3431 23.1739C57.2213 24.0457 54.8885 24.2679 52.6404 23.8123C50.3922 23.3566 48.33 22.2437 46.7151 20.6146C45.1003 18.9856 44.0055 16.9137 43.5696 14.6616C43.1336 12.4096 43.3762 10.0788 44.2666 7.96478C45.1569 5.85078 46.6549 4.04874 48.5707 2.78713C50.4864 1.52552 52.7336 0.86115 55.0274 0.878252C58.0818 0.917067 60.9987 2.15457 63.1492 4.32398C65.2997 6.4934 66.5115 9.42098 66.5236 12.4756Z" fill="#D4D2E3"/>
</svg>
