<svg width="36" height="36" viewBox="0 0 36 36" fill="none" xmlns="http://www.w3.org/2000/svg">
<path d="M0 8C0 3.58172 3.58172 0 8 0H28C32.4183 0 36 3.58172 36 8V28C36 32.4183 32.4183 36 28 36H8C3.58172 36 0 32.4183 0 28V8Z" fill="#F2F1FA"/>
<path d="M19.4638 27V18.7894H22.3585L22.7919 15.5895H19.4638V13.5465C19.4638 12.6201 19.7339 11.9888 21.1294 11.9888L22.9091 11.988V9.12607C22.6013 9.08715 21.5447 9 20.3158 9C17.7497 9 15.993 10.4912 15.993 13.2297V15.5895H13.0909V18.7894H15.993V26.9999H19.4638V27Z" fill="#8D8BA7"/>
</svg>
