<svg width="21" height="20" viewBox="0 0 21 20" fill="none" xmlns="http://www.w3.org/2000/svg">
<path d="M8.6095 2.8125H5.172C4.7576 2.8125 4.36017 2.97712 4.06714 3.27015C3.77412 3.56317 3.6095 3.9606 3.6095 4.375V7.8125C3.6095 8.2269 3.77412 8.62433 4.06714 8.91735C4.36017 9.21038 4.7576 9.375 5.172 9.375H8.6095C9.0239 9.375 9.42133 9.21038 9.71435 8.91735C10.0074 8.62433 10.172 8.2269 10.172 7.8125V4.375C10.172 3.9606 10.0074 3.56317 9.71435 3.27015C9.42133 2.97712 9.0239 2.8125 8.6095 2.8125ZM8.297 7.5H5.4845V4.6875H8.297V7.5ZM16.422 2.8125H12.9845C12.5701 2.8125 12.1727 2.97712 11.8796 3.27015C11.5866 3.56317 11.422 3.9606 11.422 4.375V7.8125C11.422 8.2269 11.5866 8.62433 11.8796 8.91735C12.1727 9.21038 12.5701 9.375 12.9845 9.375H16.422C16.8364 9.375 17.2338 9.21038 17.5269 8.91735C17.8199 8.62433 17.9845 8.2269 17.9845 7.8125V4.375C17.9845 3.9606 17.8199 3.56317 17.5269 3.27015C17.2338 2.97712 16.8364 2.8125 16.422 2.8125ZM16.1095 7.5H13.297V4.6875H16.1095V7.5ZM8.6095 10.625H5.172C4.7576 10.625 4.36017 10.7896 4.06714 11.0826C3.77412 11.3757 3.6095 11.7731 3.6095 12.1875V15.625C3.6095 16.0394 3.77412 16.4368 4.06714 16.7299C4.36017 17.0229 4.7576 17.1875 5.172 17.1875H8.6095C9.0239 17.1875 9.42133 17.0229 9.71435 16.7299C10.0074 16.4368 10.172 16.0394 10.172 15.625V12.1875C10.172 11.7731 10.0074 11.3757 9.71435 11.0826C9.42133 10.7896 9.0239 10.625 8.6095 10.625ZM8.297 15.3125H5.4845V12.5H8.297V15.3125ZM16.422 10.625H12.9845C12.5701 10.625 12.1727 10.7896 11.8796 11.0826C11.5866 11.3757 11.422 11.7731 11.422 12.1875V15.625C11.422 16.0394 11.5866 16.4368 11.8796 16.7299C12.1727 17.0229 12.5701 17.1875 12.9845 17.1875H16.422C16.8364 17.1875 17.2338 17.0229 17.5269 16.7299C17.8199 16.4368 17.9845 16.0394 17.9845 15.625V12.1875C17.9845 11.7731 17.8199 11.3757 17.5269 11.0826C17.2338 10.7896 16.8364 10.625 16.422 10.625ZM16.1095 15.3125H13.297V12.5H16.1095V15.3125Z" fill="#006AFF"/>
</svg>
