<svg width="21" height="21" viewBox="0 0 21 21" fill="none" xmlns="http://www.w3.org/2000/svg">
<path d="M8.6095 3.51135H5.172C4.7576 3.51135 4.36017 3.67597 4.06714 3.969C3.77412 4.26202 3.6095 4.65945 3.6095 5.07385V8.51135C3.6095 8.92575 3.77412 9.32318 4.06714 9.61621C4.36017 9.90923 4.7576 10.0739 5.172 10.0739H8.6095C9.0239 10.0739 9.42133 9.90923 9.71435 9.61621C10.0074 9.32318 10.172 8.92575 10.172 8.51135V5.07385C10.172 4.65945 10.0074 4.26202 9.71435 3.969C9.42133 3.67597 9.0239 3.51135 8.6095 3.51135ZM8.297 8.19885H5.4845V5.38635H8.297V8.19885ZM16.422 3.51135H12.9845C12.5701 3.51135 12.1727 3.67597 11.8796 3.969C11.5866 4.26202 11.422 4.65945 11.422 5.07385V8.51135C11.422 8.92575 11.5866 9.32318 11.8796 9.61621C12.1727 9.90923 12.5701 10.0739 12.9845 10.0739H16.422C16.8364 10.0739 17.2338 9.90923 17.5269 9.61621C17.8199 9.32318 17.9845 8.92575 17.9845 8.51135V5.07385C17.9845 4.65945 17.8199 4.26202 17.5269 3.969C17.2338 3.67597 16.8364 3.51135 16.422 3.51135ZM16.1095 8.19885H13.297V5.38635H16.1095V8.19885ZM8.6095 11.3239H5.172C4.7576 11.3239 4.36017 11.4885 4.06714 11.7815C3.77412 12.0745 3.6095 12.472 3.6095 12.8864V16.3239C3.6095 16.7383 3.77412 17.1357 4.06714 17.4287C4.36017 17.7217 4.7576 17.8864 5.172 17.8864H8.6095C9.0239 17.8864 9.42133 17.7217 9.71435 17.4287C10.0074 17.1357 10.172 16.7383 10.172 16.3239V12.8864C10.172 12.472 10.0074 12.0745 9.71435 11.7815C9.42133 11.4885 9.0239 11.3239 8.6095 11.3239ZM8.297 16.0114H5.4845V13.1989H8.297V16.0114ZM16.422 11.3239H12.9845C12.5701 11.3239 12.1727 11.4885 11.8796 11.7815C11.5866 12.0745 11.422 12.472 11.422 12.8864V16.3239C11.422 16.7383 11.5866 17.1357 11.8796 17.4287C12.1727 17.7217 12.5701 17.8864 12.9845 17.8864H16.422C16.8364 17.8864 17.2338 17.7217 17.5269 17.4287C17.8199 17.1357 17.9845 16.7383 17.9845 16.3239V12.8864C17.9845 12.472 17.8199 12.0745 17.5269 11.7815C17.2338 11.4885 16.8364 11.3239 16.422 11.3239ZM16.1095 16.0114H13.297V13.1989H16.1095V16.0114Z" fill="#006AFF"/>
</svg>
