<svg width="20" height="21" viewBox="0 0 20 21" fill="none" xmlns="http://www.w3.org/2000/svg">
<path d="M17.8125 8.76993C18.1653 8.69791 18.4824 8.50626 18.7102 8.22739C18.9379 7.94851 19.0624 7.59953 19.0625 7.23946V5.30118C19.0625 4.88678 18.8979 4.48935 18.6049 4.19632C18.3118 3.9033 17.9144 3.73868 17.5 3.73868H2.5C2.0856 3.73868 1.68817 3.9033 1.39515 4.19632C1.10212 4.48935 0.9375 4.88678 0.9375 5.30118V7.23946C0.937607 7.59953 1.06207 7.94851 1.28984 8.22739C1.51761 8.50626 1.8347 8.69791 2.1875 8.76993C2.54072 8.84165 2.85827 9.03328 3.08637 9.31235C3.31446 9.59141 3.43907 9.94075 3.43907 10.3012C3.43907 10.6616 3.31446 11.0109 3.08637 11.29C2.85827 11.5691 2.54072 11.7607 2.1875 11.8324C1.8347 11.9044 1.51761 12.0961 1.28984 12.375C1.06207 12.6538 0.937607 13.0028 0.9375 13.3629V15.3012C0.9375 15.7156 1.10212 16.113 1.39515 16.406C1.68817 16.6991 2.0856 16.8637 2.5 16.8637H17.5C17.9144 16.8637 18.3118 16.6991 18.6049 16.406C18.8979 16.113 19.0625 15.7156 19.0625 15.3012V13.3629C19.0624 13.0028 18.9379 12.6538 18.7102 12.375C18.4824 12.0961 18.1653 11.9044 17.8125 11.8324C17.4593 11.7607 17.1417 11.5691 16.9136 11.29C16.6855 11.0109 16.5609 10.6616 16.5609 10.3012C16.5609 9.94075 16.6855 9.59141 16.9136 9.31235C17.1417 9.03328 17.4593 8.84165 17.8125 8.76993ZM2.8125 13.609C3.53287 13.4053 4.16706 12.972 4.61869 12.375C5.07032 11.7779 5.3147 11.0498 5.3147 10.3012C5.3147 9.55256 5.07032 8.82441 4.61869 8.22738C4.16706 7.63034 3.53287 7.19705 2.8125 6.99337V5.61368H6.5625V14.9887H2.8125V13.609ZM17.1875 13.609V14.9887H8.4375V5.61368H17.1875V6.99337C16.4671 7.19705 15.8329 7.63034 15.3813 8.22738C14.9297 8.82441 14.6853 9.55256 14.6853 10.3012C14.6853 11.0498 14.9297 11.7779 15.3813 12.375C15.8329 12.972 16.4671 13.4053 17.1875 13.609Z" fill="#A8A8BD"/>
</svg>
