<svg width="20" height="20" viewBox="0 0 20 20" fill="none" xmlns="http://www.w3.org/2000/svg">
<path d="M17.8125 8.46878C18.1653 8.39677 18.4824 8.20512 18.7102 7.92624C18.9379 7.64736 19.0624 7.29838 19.0625 6.93831V5.00003C19.0625 4.58563 18.8979 4.1882 18.6049 3.89518C18.3118 3.60215 17.9144 3.43753 17.5 3.43753H2.5C2.0856 3.43753 1.68817 3.60215 1.39515 3.89518C1.10212 4.1882 0.9375 4.58563 0.9375 5.00003V6.93831C0.937607 7.29838 1.06207 7.64736 1.28984 7.92624C1.51761 8.20512 1.8347 8.39677 2.1875 8.46878C2.54072 8.5405 2.85827 8.73213 3.08637 9.0112C3.31446 9.29027 3.43907 9.63961 3.43907 10C3.43907 10.3605 3.31446 10.7098 3.08637 10.9889C2.85827 11.2679 2.54072 11.4596 2.1875 11.5313C1.8347 11.6033 1.51761 11.7949 1.28984 12.0738C1.06207 12.3527 0.937607 12.7017 0.9375 13.0617V15C0.9375 15.4144 1.10212 15.8119 1.39515 16.1049C1.68817 16.3979 2.0856 16.5625 2.5 16.5625H17.5C17.9144 16.5625 18.3118 16.3979 18.6049 16.1049C18.8979 15.8119 19.0625 15.4144 19.0625 15V13.0617C19.0624 12.7017 18.9379 12.3527 18.7102 12.0738C18.4824 11.7949 18.1653 11.6033 17.8125 11.5313C17.4593 11.4596 17.1417 11.2679 16.9136 10.9889C16.6855 10.7098 16.5609 10.3605 16.5609 10C16.5609 9.63961 16.6855 9.29027 16.9136 9.0112C17.1417 8.73213 17.4593 8.5405 17.8125 8.46878ZM2.8125 13.3078C3.53287 13.1042 4.16706 12.6709 4.61869 12.0738C5.07032 11.4768 5.3147 10.7486 5.3147 10C5.3147 9.25142 5.07032 8.52327 4.61869 7.92623C4.16706 7.32919 3.53287 6.89591 2.8125 6.69222V5.31253H6.5625V14.6875H2.8125V13.3078ZM17.1875 13.3078V14.6875H8.4375V5.31253H17.1875V6.69222C16.4671 6.89591 15.8329 7.32919 15.3813 7.92623C14.9297 8.52327 14.6853 9.25142 14.6853 10C14.6853 10.7486 14.9297 11.4768 15.3813 12.0738C15.8329 12.6709 16.4671 13.1042 17.1875 13.3078Z" fill="#A8A8BD"/>
</svg>
