<svg width="18" height="16" viewBox="0 0 18 16" fill="none" xmlns="http://www.w3.org/2000/svg">
<path d="M12.0271 0.701362V0.69812H12.8711L13.1794 0.759712C13.385 0.799698 13.5717 0.8521 13.7394 0.916934C13.9071 0.981767 14.0694 1.05741 14.2263 1.14385C14.3832 1.23029 14.5255 1.31837 14.6532 1.40805C14.7798 1.49666 14.8934 1.59067 14.9941 1.69007C15.0936 1.79057 15.2489 1.8165 15.4599 1.76788C15.6709 1.71925 15.8981 1.65171 16.1416 1.56527C16.385 1.47883 16.6258 1.38158 16.8638 1.27352C17.1019 1.16546 17.2469 1.09685 17.2988 1.06767C17.3497 1.03743 17.3768 1.02122 17.38 1.01905L17.3832 1.01418L17.3995 1.00608L17.4157 0.997976L17.4319 0.989871L17.4482 0.981767L17.4514 0.976905L17.4563 0.973663L17.4612 0.970421L17.4644 0.965559L17.4806 0.960696L17.4968 0.957455L17.4936 0.981767L17.4887 1.00608L17.4806 1.03039L17.4725 1.05471L17.4644 1.07091L17.4563 1.08712L17.4482 1.11143C17.4427 1.12764 17.4373 1.14925 17.4319 1.17627C17.4265 1.20329 17.3751 1.31133 17.2777 1.50044C17.1803 1.68954 17.0586 1.88133 16.9125 2.07583C16.7665 2.27034 16.6355 2.41728 16.5198 2.5167C16.4029 2.6172 16.3255 2.68743 16.2876 2.72741C16.2498 2.76847 16.2038 2.80628 16.1497 2.84087L16.0685 2.89436L16.0523 2.90246L16.0361 2.91057L16.0328 2.91543L16.028 2.91867L16.0231 2.92191L16.0198 2.92678L16.0036 2.93488L15.9874 2.94298L15.9841 2.94785L15.9793 2.95109L15.9744 2.95433L15.9711 2.95919L15.9679 2.96406L15.963 2.9673L15.9582 2.97054L15.9549 2.9754H16.0361L16.4905 2.87815C16.7935 2.81332 17.083 2.73498 17.3589 2.64313L17.7971 2.49725L17.8458 2.48105L17.8702 2.47294L17.8864 2.46484L17.9026 2.45673L17.9188 2.44863L17.9351 2.44052L17.9675 2.43566L18 2.43242V2.46484L17.9919 2.46808L17.9838 2.47294L17.9805 2.4778L17.9757 2.48105L17.9708 2.48429L17.9675 2.48915L17.9643 2.49401L17.9594 2.49725L17.9546 2.5005L17.9513 2.50536L17.9481 2.51022L17.9432 2.51346L17.9351 2.52967L17.927 2.54588L17.9221 2.54912C17.9199 2.55236 17.8512 2.6442 17.716 2.82466C17.5807 3.0062 17.5077 3.09803 17.4968 3.10021C17.486 3.10345 17.4709 3.11966 17.4514 3.14883C17.433 3.17908 17.3183 3.29957 17.1073 3.51028C16.8963 3.72099 16.6897 3.90845 16.4873 4.07271C16.2839 4.23804 16.1811 4.44118 16.1789 4.68215C16.1757 4.92203 16.1632 5.19326 16.1416 5.49581C16.1199 5.79837 16.0794 6.12523 16.0198 6.47642C15.9603 6.82761 15.8684 7.22471 15.7439 7.66774C15.6195 8.11076 15.468 8.54299 15.2894 8.96441C15.1109 9.38583 14.9243 9.76402 14.7295 10.099C14.5347 10.434 14.3562 10.7176 14.1939 10.9499C14.0316 11.1823 13.8666 11.4011 13.6988 11.6064C13.5311 11.8117 13.319 12.0429 13.0626 12.3001C12.8051 12.5562 12.6644 12.6967 12.6406 12.7215C12.6157 12.7453 12.5097 12.8339 12.3225 12.9873C12.1363 13.1419 11.9362 13.2964 11.7219 13.4509C11.5088 13.6043 11.3129 13.7324 11.1344 13.835C10.9558 13.9377 10.7405 14.0549 10.4884 14.1868C10.2373 14.3197 9.96573 14.4429 9.67358 14.5563C9.38142 14.6698 9.07304 14.7751 8.74842 14.8724C8.42381 14.9696 8.11001 15.0453 7.80703 15.0993C7.50407 15.1533 7.16051 15.1992 6.77638 15.2371L6.20018 15.2938V15.3019H5.14518V15.2938L5.00721 15.2857C4.91525 15.2803 4.8395 15.2749 4.77998 15.2695C4.72048 15.2641 4.49594 15.2344 4.1064 15.1803C3.71686 15.1263 3.41119 15.0723 3.18936 15.0182C2.96755 14.9642 2.63751 14.8616 2.19928 14.7103C1.76105 14.559 1.38611 14.4061 1.07448 14.2516C0.763937 14.0981 0.569167 14.0009 0.490171 13.9598C0.412263 13.9199 0.324617 13.8702 0.227232 13.8107L0.0811542 13.7216L0.0779243 13.7167L0.0730388 13.7135L0.0681695 13.7102L0.0649234 13.7054L0.0486925 13.6973L0.0324617 13.6892L0.0292317 13.6843L0.0243463 13.6811L0.019477 13.6778L0.0162308 13.673L0.0130009 13.6681L0.00811542 13.6648H0V13.6324L0.0162308 13.6357L0.0324617 13.6405L0.1055 13.6486C0.154193 13.654 0.28675 13.6621 0.503156 13.673C0.719578 13.6838 0.949504 13.6838 1.19297 13.673C1.43643 13.6621 1.68531 13.6378 1.93959 13.6C2.19387 13.5622 2.49414 13.4974 2.8404 13.4055C3.18667 13.3137 3.50479 13.2045 3.79479 13.0781C4.0837 12.9506 4.28927 12.8555 4.41156 12.7928C4.53274 12.7312 4.71777 12.6167 4.96664 12.4492L5.33995 12.198L5.34319 12.1931L5.34806 12.1899L5.35295 12.1866L5.35618 12.1818L5.35942 12.1769L5.36429 12.1737L5.36918 12.1704L5.37241 12.1656L5.38864 12.1607L5.40487 12.1575L5.40812 12.1413L5.41298 12.125L5.41787 12.1218L5.4211 12.1169L5.29125 12.1088C5.20469 12.1034 5.12083 12.098 5.03968 12.0926C4.95852 12.0872 4.83138 12.0629 4.65825 12.0197C4.48513 11.9765 4.29848 11.9116 4.09829 11.8252C3.89811 11.7388 3.70334 11.6361 3.51398 11.5172C3.32463 11.3984 3.18774 11.2995 3.10334 11.2206C3.02002 11.1428 2.91181 11.0326 2.77872 10.89C2.64671 10.7463 2.53201 10.5988 2.43463 10.4475C2.33724 10.2962 2.24419 10.1217 2.15547 9.92395L2.02074 9.62895L2.01262 9.60464L2.00451 9.58033L1.99964 9.56412L1.99639 9.54791L2.02074 9.55115L2.04509 9.55602L2.22362 9.58033C2.34266 9.59654 2.52932 9.60193 2.78359 9.59654C3.03788 9.59114 3.21371 9.58033 3.31109 9.56412C3.40848 9.54791 3.46799 9.5371 3.48963 9.5317L3.52209 9.5236L3.56267 9.51549L3.60325 9.50739L3.60649 9.50253L3.61136 9.49929L3.61625 9.49604L3.61948 9.49118L3.58702 9.48308L3.55455 9.47497L3.52209 9.46687L3.48963 9.45876L3.45717 9.45066C3.43553 9.44526 3.39767 9.43445 3.34355 9.41824C3.28946 9.40204 3.14338 9.3426 2.90532 9.23995C2.66728 9.1373 2.47791 9.03735 2.33724 8.9401C2.19622 8.84256 2.06176 8.7359 1.93472 8.62079C1.80812 8.50409 1.66908 8.35389 1.51758 8.1702C1.3661 7.98651 1.23085 7.77309 1.11181 7.52996C0.992792 7.28684 0.903522 7.05452 0.844004 6.833C0.784724 6.61279 0.745615 6.38764 0.727158 6.16035L0.697926 5.81998L0.714157 5.82322L0.730388 5.82808L0.746619 5.83619L0.762849 5.84429L0.77908 5.85239L0.795311 5.8605L1.04689 5.97396C1.21462 6.0496 1.42291 6.11444 1.67178 6.16846C1.92066 6.22248 2.06943 6.25221 2.11812 6.2576L2.19116 6.26571H2.33724L2.33401 6.26085L2.32913 6.2576L2.32426 6.25436L2.32101 6.2495L2.31778 6.24464L2.31289 6.2414L2.30803 6.23815L2.30478 6.23329L2.28855 6.22519L2.27232 6.21708L2.26909 6.21222L2.2642 6.20898L2.25933 6.20574L2.25609 6.20087L2.23986 6.19277L2.22362 6.18467L2.22039 6.1798C2.21715 6.17763 2.17061 6.14306 2.08079 6.07607C1.99206 6.00799 1.89901 5.91993 1.80162 5.81187C1.70424 5.70381 1.60685 5.59035 1.50947 5.4715C1.4119 5.35237 1.32501 5.22491 1.24977 5.0906C1.17404 4.95553 1.09396 4.78371 1.00956 4.57517C0.926245 4.3677 0.862945 4.15862 0.819657 3.94791C0.776386 3.7372 0.75204 3.52919 0.746619 3.32388C0.741214 3.11857 0.746619 2.94298 0.762849 2.79711C0.77908 2.65123 0.811542 2.48644 0.860234 2.30275C0.908927 2.11906 0.979271 1.92456 1.07124 1.71925L1.2092 1.41129L1.21731 1.38698L1.22543 1.36266L1.23031 1.35942L1.23354 1.35456L1.23679 1.3497L1.24166 1.34646L1.24654 1.3497L1.24977 1.35456L1.25302 1.35942L1.25789 1.36266L1.26278 1.36591L1.26601 1.37077L1.26925 1.37563L1.27412 1.37887L1.28224 1.39508L1.29035 1.41129L1.29524 1.41453L1.29847 1.41939L1.51758 1.66252C1.66366 1.8246 1.8368 2.0056 2.03697 2.2055C2.23716 2.4054 2.34807 2.50913 2.3697 2.5167C2.39135 2.52534 2.41839 2.55019 2.45086 2.59126C2.48332 2.63125 2.59153 2.72688 2.77547 2.87815C2.95943 3.02942 3.20019 3.20503 3.49775 3.40492C3.79532 3.60482 4.12534 3.80203 4.48783 3.99653C4.85033 4.19103 5.23987 4.36662 5.65645 4.5233C6.07304 4.67999 6.3652 4.78264 6.53291 4.83126C6.70064 4.87989 6.98738 4.94202 7.39315 5.01766C7.79892 5.09331 8.10461 5.14193 8.31019 5.16354C8.51579 5.18514 8.65646 5.19757 8.73219 5.20082L8.84581 5.20406L8.84258 5.17975L8.83769 5.15543L8.80523 4.95283C8.78359 4.81776 8.77277 4.62866 8.77277 4.38553C8.77277 4.14241 8.79171 3.9182 8.82958 3.71288C8.86746 3.50757 8.92427 3.29957 9 3.08886C9.07575 2.87815 9.14988 2.70903 9.22236 2.58154C9.29595 2.45511 9.39225 2.31086 9.51127 2.14877C9.63031 1.98669 9.7845 1.81921 9.97385 1.64631C10.1632 1.47342 10.3796 1.31944 10.6231 1.18437C10.8665 1.04931 11.0911 0.946644 11.2967 0.876413C11.5023 0.806182 11.6754 0.760247 11.8161 0.738641C11.9567 0.717035 12.0271 0.704603 12.0271 0.701362V0.701362Z" fill="#8D8BA7"/>
</svg>
