<svg width="20" height="20" viewBox="0 0 20 20" fill="none" xmlns="http://www.w3.org/2000/svg">
<path d="M18.3109 16.4063C17.2398 14.5264 15.5673 13.0616 13.5625 12.2477C14.5594 11.5 15.2959 10.4576 15.6674 9.26806C16.039 8.07857 16.0269 6.80231 15.6328 5.62009C15.2387 4.43786 14.4827 3.40959 13.4717 2.68094C12.4608 1.95229 11.2462 1.56019 10 1.56019C8.75383 1.56019 7.53924 1.95229 6.52829 2.68094C5.51734 3.40959 4.76127 4.43786 4.3672 5.62009C3.97312 6.80231 3.96101 8.07857 4.33258 9.26806C4.70415 10.4576 5.44056 11.5 6.4375 12.2477C4.43276 13.0616 2.76019 14.5264 1.68907 16.4063C1.6227 16.513 1.57846 16.632 1.55899 16.7561C1.53952 16.8803 1.54521 17.0071 1.57572 17.129C1.60624 17.2509 1.66096 17.3655 1.73662 17.4658C1.81228 17.5662 1.90735 17.6503 2.01617 17.7131C2.12499 17.776 2.24534 17.8164 2.37007 17.8318C2.49479 17.8472 2.62135 17.8374 2.74221 17.803C2.86307 17.7685 2.97577 17.7101 3.0736 17.6312C3.17144 17.5523 3.25242 17.4546 3.31172 17.3438C4.72735 14.8969 7.22735 13.4375 10 13.4375C12.7727 13.4375 15.2727 14.8977 16.6883 17.3438C16.8168 17.5504 17.0207 17.699 17.2568 17.7581C17.4928 17.8172 17.7427 17.7822 17.9534 17.6604C18.1641 17.5387 18.3192 17.3398 18.386 17.1057C18.4527 16.8717 18.4258 16.6209 18.3109 16.4063ZM5.9375 7.50003C5.9375 6.69655 6.17577 5.9111 6.62216 5.24303C7.06855 4.57495 7.70303 4.05425 8.44535 3.74677C9.18768 3.43929 10.0045 3.35884 10.7926 3.51559C11.5806 3.67234 12.3045 4.05926 12.8726 4.62741C13.4408 5.19556 13.8277 5.91943 13.9844 6.70748C14.1412 7.49553 14.0607 8.31236 13.7533 9.05468C13.4458 9.79701 12.9251 10.4315 12.257 10.8779C11.5889 11.3243 10.8035 11.5625 10 11.5625C8.92294 11.5613 7.89035 11.1329 7.12875 10.3713C6.36716 9.60969 5.93875 8.57709 5.9375 7.50003Z" fill="#A8A8BD"/>
</svg>
