<svg width="20" height="20" viewBox="0 0 20 20" fill="none" xmlns="http://www.w3.org/2000/svg">
<path d="M9.77972 12.261C10.5649 11.601 11.1281 10.7155 11.393 9.7245C11.6578 8.73354 11.6115 7.68511 11.2603 6.72138C10.909 5.75765 10.2699 4.92527 9.42954 4.33711C8.58919 3.74895 7.58827 3.43347 6.56253 3.43347C5.53679 3.43347 4.53588 3.74895 3.69552 4.33711C2.85516 4.92527 2.21602 5.75765 1.86479 6.72138C1.51356 7.68511 1.46723 8.73354 1.73208 9.7245C1.99693 10.7155 2.56014 11.601 3.34534 12.261C2.11923 12.8154 1.05668 13.6764 0.260187 14.761C0.113074 14.9614 0.0516224 15.2121 0.0893494 15.4579C0.127076 15.7037 0.260892 15.9244 0.461359 16.0715C0.661825 16.2186 0.912521 16.2801 1.1583 16.2424C1.40407 16.2046 1.62479 16.0708 1.77191 15.8703C2.32327 15.1173 3.04438 14.5049 3.87673 14.0827C4.70908 13.6605 5.62924 13.4405 6.56253 13.4405C7.49583 13.4405 8.41598 13.6605 9.24833 14.0827C10.0807 14.5049 10.8018 15.1173 11.3532 15.8703C11.5003 16.0709 11.721 16.2048 11.9669 16.2426C12.2127 16.2804 12.4635 16.219 12.6641 16.0719C12.8647 15.9248 12.9986 15.704 13.0364 15.4582C13.0742 15.2123 13.0128 14.9615 12.8657 14.761C12.0687 13.6765 11.0059 12.8156 9.77972 12.261ZM3.43753 8.43753C3.43753 7.81946 3.62081 7.21528 3.96419 6.70137C4.30757 6.18747 4.79563 5.78693 5.36665 5.55041C5.93766 5.31388 6.566 5.252 7.17219 5.37258C7.77838 5.49316 8.3352 5.79078 8.77224 6.22782C9.20928 6.66486 9.50691 7.22168 9.62749 7.82787C9.74806 8.43406 9.68618 9.0624 9.44966 9.63342C9.21313 10.2044 8.81259 10.6925 8.29869 11.0359C7.78478 11.3793 7.1806 11.5625 6.56253 11.5625C5.73373 11.5625 4.93887 11.2333 4.35282 10.6472C3.76677 10.0612 3.43753 9.26633 3.43753 8.43753ZM19.5391 16.068C19.4398 16.1409 19.3272 16.1936 19.2076 16.223C19.088 16.2523 18.9638 16.2579 18.842 16.2392C18.7203 16.2206 18.6034 16.1781 18.4981 16.1143C18.3927 16.0505 18.301 15.9665 18.2282 15.8672C17.6754 15.1156 16.954 14.5043 16.122 14.0823C15.2899 13.6603 14.3705 13.4394 13.4375 13.4375C13.1889 13.4375 12.9504 13.3388 12.7746 13.1629C12.5988 12.9871 12.5 12.7487 12.5 12.5C12.5 12.2514 12.5988 12.0129 12.7746 11.8371C12.9504 11.6613 13.1889 11.5625 13.4375 11.5625C13.8977 11.562 14.352 11.4598 14.7681 11.2634C15.1842 11.067 15.5517 10.781 15.8445 10.4261C16.1373 10.0712 16.3481 9.65593 16.4619 9.21009C16.5756 8.76424 16.5895 8.29878 16.5026 7.84694C16.4156 7.39511 16.2299 6.96805 15.9588 6.59627C15.6877 6.2245 15.3379 5.91718 14.9342 5.69626C14.5306 5.47535 14.0832 5.3463 13.6239 5.31832C13.1646 5.29034 12.7048 5.36412 12.2774 5.53441C12.1629 5.58129 12.0402 5.60504 11.9165 5.6043C11.7928 5.60356 11.6704 5.57833 11.5565 5.53007C11.4425 5.48181 11.3393 5.41147 11.2527 5.32312C11.1661 5.23476 11.0978 5.13013 11.0518 5.01526C11.0058 4.9004 10.983 4.77756 10.9847 4.65384C10.9864 4.53013 11.0126 4.40797 11.0618 4.29442C11.1109 4.18087 11.1821 4.07817 11.2711 3.99224C11.3601 3.90632 11.4653 3.83887 11.5805 3.79378C12.6839 3.35202 13.9085 3.31774 15.0349 3.6971C16.1612 4.07646 17.1156 4.84463 17.7269 5.8639C18.3382 6.88316 18.5664 8.08685 18.3707 9.25914C18.1749 10.4314 17.5679 11.4956 16.6586 12.261C17.8847 12.8154 18.9473 13.6764 19.7438 14.761C19.8894 14.9616 19.9497 15.2118 19.9113 15.4567C19.8729 15.7017 19.7391 15.9215 19.5391 16.068Z" fill="#A8A8BD"/>
</svg>
