<svg width="20" height="21" viewBox="0 0 20 21" fill="none" xmlns="http://www.w3.org/2000/svg">
<path d="M9.77969 12.5621C10.5649 11.9021 11.1281 11.0166 11.393 10.0256C11.6578 9.03469 11.6115 7.98625 11.2602 7.02253C10.909 6.0588 10.2699 5.22641 9.42951 4.63825C8.58916 4.05009 7.58824 3.73462 6.5625 3.73462C5.53676 3.73462 4.53585 4.05009 3.69549 4.63825C2.85513 5.22641 2.21599 6.0588 1.86476 7.02253C1.51353 7.98625 1.4672 9.03469 1.73205 10.0256C1.9969 11.0166 2.56011 11.9021 3.34531 12.5621C2.1192 13.1165 1.05665 13.9775 0.260156 15.0621C0.113044 15.2626 0.0515919 15.5133 0.0893189 15.7591C0.127046 16.0048 0.260862 16.2255 0.461328 16.3727C0.661794 16.5198 0.91249 16.5812 1.15827 16.5435C1.40404 16.5058 1.62476 16.372 1.77188 16.1715C2.32324 15.4185 3.04435 14.806 3.8767 14.3839C4.70905 13.9617 5.6292 13.7417 6.5625 13.7417C7.4958 13.7417 8.41595 13.9617 9.2483 14.3839C10.0807 14.806 10.8018 15.4185 11.3531 16.1715C11.5002 16.3721 11.721 16.506 11.9668 16.5438C12.2127 16.5816 12.4635 16.5202 12.6641 16.3731C12.8646 16.2259 12.9985 16.0052 13.0363 15.7593C13.0741 15.5135 13.0127 15.2627 12.8656 15.0621C12.0687 13.9777 11.0059 13.1167 9.77969 12.5621ZM3.4375 8.73868C3.4375 8.12061 3.62078 7.51642 3.96416 7.00252C4.30754 6.48861 4.7956 6.08808 5.36662 5.85155C5.93763 5.61503 6.56597 5.55314 7.17216 5.67372C7.77835 5.7943 8.33517 6.09193 8.77221 6.52897C9.20925 6.96601 9.50688 7.52283 9.62746 8.12902C9.74803 8.73521 9.68615 9.36354 9.44962 9.93456C9.2131 10.5056 8.81256 10.9936 8.29866 11.337C7.78475 11.6804 7.18057 11.8637 6.5625 11.8637C5.7337 11.8637 4.93884 11.5344 4.35279 10.9484C3.76674 10.3623 3.4375 9.56748 3.4375 8.73868ZM19.5391 16.3691C19.4398 16.4421 19.3272 16.4947 19.2076 16.5241C19.088 16.5535 18.9637 16.559 18.842 16.5404C18.7203 16.5217 18.6034 16.4793 18.498 16.4154C18.3927 16.3516 18.301 16.2677 18.2281 16.1684C17.6754 15.4168 16.954 14.8054 16.122 14.3834C15.2899 13.9614 14.3704 13.7406 13.4375 13.7387C13.1889 13.7387 12.9504 13.6399 12.7746 13.4641C12.5988 13.2883 12.5 13.0498 12.5 12.8012C12.5 12.5525 12.5988 12.3141 12.7746 12.1383C12.9504 11.9624 13.1889 11.8637 13.4375 11.8637C13.8976 11.8631 14.352 11.761 14.768 11.5645C15.1841 11.3681 15.5517 11.0822 15.8445 10.7272C16.1373 10.3723 16.3481 9.95707 16.4618 9.51123C16.5756 9.06539 16.5895 8.59992 16.5025 8.14809C16.4156 7.69625 16.2299 7.26919 15.9588 6.89742C15.6877 6.52564 15.3378 6.21832 14.9342 5.99741C14.5306 5.7765 14.0831 5.64744 13.6239 5.61946C13.1646 5.59148 12.7048 5.66527 12.2773 5.83555C12.1628 5.88243 12.0402 5.90619 11.9165 5.90544C11.7927 5.9047 11.6704 5.87947 11.5564 5.83121C11.4425 5.78295 11.3393 5.71262 11.2526 5.62426C11.166 5.5359 11.0978 5.43128 11.0518 5.31641C11.0058 5.20154 10.983 5.07871 10.9847 4.95499C10.9864 4.83127 11.0126 4.70911 11.0617 4.59556C11.1109 4.48201 11.182 4.37931 11.2711 4.29339C11.3601 4.20746 11.4652 4.14001 11.5805 4.09493C12.6838 3.65316 13.9085 3.61889 15.0348 3.99824C16.1612 4.3776 17.1156 5.14578 17.7269 6.16504C18.3382 7.18431 18.5664 8.388 18.3706 9.56028C18.1749 10.7326 17.5679 11.7968 16.6586 12.5621C17.8847 13.1165 18.9473 13.9775 19.7438 15.0621C19.8894 15.2628 19.9496 15.5129 19.9113 15.7579C19.8729 16.0028 19.7391 16.2226 19.5391 16.3691Z" fill="#A8A8BD"/>
</svg>
