<svg width="20" height="21" viewBox="0 0 20 21" fill="none" xmlns="http://www.w3.org/2000/svg">
<path d="M18.3109 16.7074C17.2398 14.8275 15.5673 13.3627 13.5625 12.5488C14.5594 11.8011 15.2959 10.7587 15.6674 9.5692C16.039 8.37971 16.0269 7.10345 15.6328 5.92123C15.2387 4.739 14.4827 3.71073 13.4717 2.98208C12.4608 2.25342 11.2462 1.86133 10 1.86133C8.75382 1.86133 7.53924 2.25342 6.52828 2.98208C5.51733 3.71073 4.76127 4.739 4.36719 5.92123C3.97312 7.10345 3.96101 8.37971 4.33258 9.5692C4.70415 10.7587 5.44056 11.8011 6.4375 12.5488C4.43275 13.3627 2.76019 14.8275 1.68906 16.7074C1.62269 16.8141 1.57846 16.9331 1.55898 17.0573C1.53951 17.1814 1.5452 17.3082 1.57572 17.4302C1.60624 17.5521 1.66095 17.6666 1.73662 17.767C1.81228 17.8673 1.90735 17.9514 2.01617 18.0143C2.12499 18.0772 2.24534 18.1175 2.37006 18.1329C2.49479 18.1484 2.62134 18.1386 2.7422 18.1041C2.86306 18.0696 2.97576 18.0112 3.0736 17.9324C3.17144 17.8535 3.25241 17.7557 3.31172 17.6449C4.72734 15.198 7.22734 13.7387 10 13.7387C12.7727 13.7387 15.2727 15.1988 16.6883 17.6449C16.8168 17.8516 17.0207 18.0002 17.2568 18.0593C17.4928 18.1184 17.7427 18.0833 17.9534 17.9616C18.1641 17.8398 18.3192 17.6409 18.386 17.4069C18.4527 17.1728 18.4258 16.922 18.3109 16.7074ZM5.9375 7.80117C5.9375 6.99769 6.17576 6.21224 6.62216 5.54417C7.06855 4.87609 7.70302 4.35539 8.44535 4.04791C9.18767 3.74043 10.0045 3.65998 10.7926 3.81673C11.5806 3.97348 12.3045 4.3604 12.8726 4.92855C13.4408 5.4967 13.8277 6.22057 13.9844 7.00862C14.1412 7.79666 14.0607 8.6135 13.7533 9.35582C13.4458 10.0981 12.9251 10.7326 12.257 11.179C11.5889 11.6254 10.8035 11.8637 10 11.8637C8.92294 11.8624 7.89035 11.434 7.12875 10.6724C6.36715 9.91083 5.93874 8.87823 5.9375 7.80117Z" fill="#A8A8BD"/>
</svg>
