<svg width="138" height="27" viewBox="0 0 138 27" fill="none" xmlns="http://www.w3.org/2000/svg">
<path d="M9.03557 26.4595H3.88401V13.4801H0.374664V9.25421H3.88387V6.24722C3.88387 2.68393 5.436 0.128357 10.5736 0.128357C11.6602 0.128357 13.3662 0.349715 13.3662 0.349715V4.27365H11.5744C9.74868 4.27365 9.03585 4.83492 9.03585 6.38664V9.25421H13.2978L12.9183 13.4801H9.03571L9.03557 26.4595ZM20.856 8.91651C20.7809 8.91651 20.7037 8.91927 20.6272 8.92121C15.8504 8.92121 13.6649 12.5528 13.6649 17.7078C13.6649 24.2018 16.4998 26.8009 20.6646 26.8009C23.0474 26.8009 24.6129 25.7873 25.5644 23.8956V26.4613H30.4643V9.25601H25.5644V11.9019C24.7875 10.1996 23.1782 8.93668 20.856 8.91651ZM22.1019 12.9821C24.1081 12.9821 25.3123 14.3964 25.3123 16.8022L25.317 19.2594C25.317 20.8809 24.3224 22.7779 22.1019 22.7779C18.6881 22.7779 18.7793 19.0524 18.7793 17.8116C18.7793 13.6377 20.5981 12.9821 22.1019 12.9821ZM32.4431 17.8596C32.4431 15.7688 32.3441 8.9277 41.1628 8.9277C44.7028 8.9277 46.181 10.0653 46.181 10.0653L44.9929 13.7896C44.9929 13.7896 43.5166 12.968 41.5931 12.968C39.1293 12.968 37.5572 14.4115 37.5572 16.9513L37.56 18.7725C37.56 21.213 39.0768 22.8421 41.5981 22.8421C43.3505 22.8421 44.9657 22.0127 44.9657 22.0127L46.1507 25.6592C46.1507 25.6592 44.7992 26.804 41.1876 26.804C32.7908 26.804 32.4433 20.6662 32.4433 17.8596H32.4431ZM74.9107 8.92121C79.6877 8.92121 81.9076 12.5528 81.9076 17.7078C81.9076 24.2018 79.0726 26.8009 74.9078 26.8009C72.525 26.8009 70.7636 25.7874 69.812 23.8956V26.4613L64.9738 26.4594V0.651492L70.1108 0.198689V11.6688C70.8522 9.66211 73.2887 8.92121 74.9108 8.92121H74.9107ZM73.4705 12.9821C71.4642 12.9821 70.1108 14.3964 70.1108 16.8022L70.106 19.2594C70.103 20.8809 71.0433 22.7779 73.4705 22.7779C76.8843 22.7779 76.7931 19.0524 76.7931 17.8116C76.7931 13.6377 74.9744 12.9821 73.4705 12.9821ZM55.094 8.93544C49.6759 8.93544 46.8156 11.921 46.8156 17.2267V18.2125C46.8156 25.0988 50.8324 26.8717 55.6213 26.8717C60.276 26.8717 62.3829 25.5558 62.3829 25.5558L61.4217 22.0517C61.4217 22.0517 58.9433 23.1174 56.2372 23.1174C53.4318 23.1174 52.2253 22.3948 51.916 19.6699H62.7936V16.8587C62.7936 11.1034 59.5834 8.9353 55.0938 8.9353L55.094 8.93544ZM55.2245 12.4443C57.1 12.4443 58.3152 13.6066 58.2485 16.3023H51.9254C52.0351 13.4651 53.3456 12.4444 55.2245 12.4444V12.4443ZM92.1505 8.91181C86.5866 8.91181 83.6575 12.0807 83.6575 17.7597C83.6575 25.5514 88.7066 26.8056 92.1598 26.8056C97.215 26.8056 100.578 24.055 100.578 17.8304C100.578 11.3517 96.7966 8.91181 92.1505 8.91181V8.91181ZM92.0805 12.9962C94.527 12.9962 95.4964 14.8468 95.4964 16.9533V18.7643C95.4964 21.3162 94.14 22.7922 92.0712 22.7922C90.1364 22.7922 88.7766 21.4115 88.7766 18.7643V16.9533C88.7766 14.13 90.3946 12.9962 92.0805 12.9962V12.9962ZM110.812 8.91181C105.248 8.91181 102.319 12.0807 102.319 17.7597C102.319 25.5514 107.368 26.8056 110.821 26.8056C115.876 26.8056 119.24 24.055 119.24 17.8304C119.24 11.3517 115.458 8.91181 110.812 8.91181V8.91181ZM110.742 12.9962C113.188 12.9962 114.158 14.8468 114.158 16.9533V18.7643C114.158 21.3162 112.801 22.7922 110.733 22.7922C108.798 22.7922 107.438 21.4115 107.438 18.7643V16.9533C107.438 14.13 109.056 12.9962 110.742 12.9962V12.9962ZM121.181 26.4595V0.651492L126.333 0.198689V17.4968L131.444 9.25421H136.885L131.553 17.7912L137.09 26.4595H131.634L126.333 18.0426V26.4595H121.181Z" fill="#767494"/>
</svg>
